<?xml version="1.0" standalone="no"?>
<!DOCTYPE svg PUBLIC "-//W3C//DTD SVG 20010904//EN"
 "http://www.w3.org/TR/2001/REC-SVG-20010904/DTD/svg10.dtd">
<svg version="1.0" xmlns="http://www.w3.org/2000/svg"
 width="736.000000pt" height="736.000000pt" viewBox="0 0 736.000000 736.000000"
 preserveAspectRatio="xMidYMid meet">
<metadata>
Created by potrace 1.14, written by Peter Selinger 2001-2017
</metadata>
<g transform="translate(0.000000,736.000000) scale(0.100000,-0.100000)"
fill="#000000" stroke="none">
<path d="M1499 7275 c-3 -2 -27 -7 -55 -10 -106 -10 -256 -48 -375 -94 -91
-35 -213 -93 -217 -103 -2 -5 -7 -8 -12 -8 -15 0 -130 -72 -130 -81 0 -5 -5
-9 -11 -9 -11 0 -52 -31 -134 -100 -90 -77 -207 -208 -270 -304 -47 -71 -49
-78 -40 -131 6 -45 37 -83 108 -135 56 -41 211 -164 282 -223 50 -42 363 -353
420 -418 17 -19 55 -63 84 -99 30 -36 57 -67 60 -70 4 -3 98 -120 211 -260
112 -140 206 -257 209 -260 5 -4 24 -28 83 -105 37 -47 78 -100 103 -131 17
-20 34 -45 39 -55 5 -11 13 -19 18 -19 4 0 8 -6 8 -14 0 -8 4 -16 8 -18 5 -1
26 -28 48 -58 21 -30 41 -57 44 -60 3 -3 30 -41 60 -85 30 -44 58 -81 62 -83
4 -2 8 -8 8 -12 0 -5 26 -48 59 -97 116 -174 161 -245 161 -254 0 -5 5 -9 10
-9 6 0 10 -5 10 -10 0 -6 15 -35 34 -64 64 -101 180 -324 246 -476 18 -41 41
-95 52 -120 11 -24 21 -49 23 -55 1 -5 8 -23 14 -40 34 -79 114 -306 131 -370
5 -16 18 -61 29 -100 56 -184 133 -513 147 -630 3 -22 7 -46 10 -54 3 -8 7
-28 9 -45 2 -17 9 -65 15 -106 6 -41 13 -100 16 -130 3 -30 7 -73 9 -95 25
-237 24 -538 -1 -736 -11 -87 -64 -325 -84 -374 -4 -11 -22 -60 -40 -110 -17
-49 -38 -104 -46 -122 -31 -69 -23 -139 23 -194 37 -43 80 -59 160 -59 70 0
133 23 160 59 28 36 153 401 177 516 32 150 46 215 50 240 2 17 5 30 6 30 1 0
3 14 4 30 2 17 6 55 11 85 45 314 36 769 -21 1100 -8 47 -17 99 -20 115 -2 17
-7 37 -9 45 -2 8 -6 31 -9 50 -17 110 -95 396 -163 600 -46 137 -142 385 -188
485 -12 28 -31 68 -40 90 -23 51 -166 339 -193 387 -12 21 -38 68 -58 105 -20
37 -43 75 -50 84 -8 8 -14 18 -14 21 0 3 -25 45 -55 94 -92 148 -101 176 -80
254 17 66 39 104 94 165 30 34 98 75 135 80 64 11 235 74 266 98 8 7 30 21 49
31 38 21 62 39 98 73 13 12 23 20 23 18 0 -2 10 6 23 18 13 12 36 31 52 42 16
11 34 26 41 33 7 6 17 12 22 12 6 0 12 3 14 8 6 14 326 212 343 212 2 0 41 17
87 38 80 37 117 54 128 57 19 4 87 29 95 34 6 3 19 6 30 8 11 1 43 9 72 17 53
15 81 21 163 33 75 12 261 6 329 -11 36 -8 68 -13 73 -10 4 3 8 1 8 -4 0 -8
74 -27 93 -23 4 0 7 -4 7 -9 0 -5 3 -9 8 -8 7 1 23 -4 87 -30 73 -29 148 -84
240 -172 92 -89 112 -100 230 -125 17 -4 37 -9 45 -12 8 -4 17 -7 20 -8 21 -5
121 -40 148 -51 87 -38 112 -49 170 -83 35 -20 73 -41 84 -47 11 -7 53 -38 94
-70 101 -81 120 -127 79 -190 -25 -38 -71 -53 -150 -47 -38 3 -103 5 -142 6
-40 1 -73 5 -73 9 0 4 -6 5 -12 3 -7 -2 -47 -7 -88 -10 -65 -4 -120 -12 -155
-20 -138 -31 -264 -84 -370 -154 -22 -14 -46 -32 -53 -38 -7 -7 -17 -13 -22
-13 -14 0 -214 -202 -235 -238 -11 -17 -23 -32 -27 -32 -4 0 -8 -5 -8 -11 0
-6 -13 -28 -28 -48 -33 -41 -108 -173 -137 -241 -11 -25 -22 -47 -25 -50 -14
-13 -102 -256 -98 -270 1 -3 -4 -15 -11 -28 -7 -13 -15 -33 -17 -45 -6 -27 -9
-37 -17 -57 -5 -14 -23 -83 -32 -125 -3 -11 -12 -51 -21 -90 -8 -38 -17 -79
-19 -90 -4 -23 -15 -90 -20 -120 -2 -11 -6 -33 -8 -50 -3 -16 -11 -66 -17
-110 -6 -44 -14 -94 -16 -111 -3 -17 -7 -55 -9 -85 -2 -30 -7 -78 -9 -107 -8
-85 -15 -189 -21 -307 -7 -122 -11 -186 -21 -290 -4 -38 -8 -87 -8 -107 -1
-21 -3 -38 -6 -38 -3 0 -5 -12 -6 -28 0 -15 -4 -45 -7 -67 -4 -22 -9 -56 -12
-75 -3 -19 -11 -62 -17 -95 -5 -33 -12 -73 -15 -90 -2 -16 -15 -77 -29 -135
-14 -58 -27 -117 -29 -132 -2 -15 -6 -32 -10 -38 -3 -5 -13 -36 -21 -67 -27
-105 -88 -289 -135 -408 -7 -16 -13 -35 -15 -42 -1 -7 -14 -37 -28 -67 -14
-30 -26 -60 -26 -67 0 -7 -7 -20 -16 -30 -18 -20 -29 -135 -13 -144 5 -4 7
-10 4 -15 -3 -5 12 -27 34 -49 30 -30 51 -41 83 -46 58 -8 1862 0 1913 9 39 7
200 43 220 49 6 2 30 9 54 16 24 7 55 17 70 23 14 6 33 12 41 14 21 4 64 27
72 39 4 5 8 7 8 2 0 -11 143 67 235 128 103 69 140 101 250 211 94 94 97 98
158 179 20 28 40 55 45 60 30 39 160 290 167 325 2 8 9 29 16 45 14 35 11 24
43 148 27 104 31 125 42 252 9 100 10 4106 1 4195 -15 142 -47 296 -76 365 -4
11 -14 38 -21 59 -32 99 -174 365 -201 374 -5 2 -9 10 -9 18 0 8 -4 14 -8 14
-4 0 -16 14 -26 31 -19 33 -218 235 -272 277 -238 186 -506 300 -824 350 -42
7 -4315 14 -4321 7z"/>
<path d="M93 4395 c-37 -19 -65 -48 -79 -82 -20 -47 -20 -579 0 -627 8 -19 38
-52 68 -75 29 -23 58 -45 64 -50 5 -4 37 -27 70 -50 108 -76 148 -105 294
-215 128 -97 286 -221 300 -236 3 -3 34 -30 70 -60 109 -92 293 -280 380 -390
19 -24 44 -54 55 -67 11 -12 31 -39 45 -58 14 -20 40 -56 58 -80 17 -24 32
-48 32 -54 0 -5 4 -11 8 -13 28 -11 292 -492 342 -623 5 -11 16 -38 26 -60 10
-22 19 -42 19 -45 1 -3 5 -14 10 -25 31 -80 56 -150 76 -210 44 -132 86 -183
152 -184 66 -2 93 44 84 144 -3 36 -8 68 -10 73 -3 4 -8 25 -11 47 -4 22 -11
58 -17 80 -6 22 -12 47 -14 55 -2 8 -13 51 -26 95 -12 44 -27 100 -34 125 -16
58 -109 308 -141 378 -13 29 -24 55 -24 58 0 7 -175 361 -189 384 -6 8 -42 71
-82 140 -40 69 -76 127 -81 128 -4 2 -8 8 -8 12 0 8 -31 59 -57 96 -5 5 -12
18 -18 27 -69 115 -312 434 -448 590 -16 17 -48 54 -70 82 -93 110 -520 530
-647 634 -14 11 -30 25 -36 29 -42 36 -119 48 -161 27z"/>
<path d="M24 1778 l-26 -21 6 -111 c25 -485 247 -909 636 -1216 38 -30 97 -70
205 -137 33 -21 148 -74 185 -87 19 -6 47 -11 62 -10 35 1 94 41 108 74 12 25
15 133 5 180 -3 14 -8 45 -11 70 -2 25 -11 70 -20 100 -8 30 -17 63 -19 73
-19 82 -94 235 -164 335 -56 78 -236 264 -341 353 -36 30 -67 56 -70 59 -3 3
-23 18 -45 35 -22 16 -45 34 -52 40 -23 19 -38 31 -120 90 -169 123 -201 145
-212 145 -6 0 -11 4 -11 8 0 11 -38 31 -67 37 -13 2 -34 -5 -49 -17z"/>
</g>
</svg>
