<svg width="3839" height="3913" viewBox="0 0 3839 3913" fill="none" xmlns="http://www.w3.org/2000/svg">
<g style="mix-blend-mode:multiply">
<path d="M3536.03 3692.46C3540.28 3696.94 3540.28 3701.41 3536.03 3705.85L3516.93 3725.97C3512.68 3730.45 3508.44 3730.45 3504.23 3725.97L3485.13 3705.85C3480.88 3701.37 3480.88 3696.89 3485.13 3692.46L3504.23 3672.34C3508.48 3667.86 3512.73 3667.86 3516.93 3672.34L3536.03 3692.46Z" fill="#0c0c0c" fillOpacity="0.4"/>
<path d="M3546.22 3317.32C3552.16 3323.58 3552.16 3329.84 3546.22 3336.1L3519.49 3364.26C3513.55 3370.52 3507.61 3370.52 3501.67 3364.26L3474.95 3336.1C3469.01 3329.84 3469.01 3323.58 3474.95 3317.32L3501.67 3289.16C3507.61 3282.9 3513.55 3282.9 3519.49 3289.16L3546.22 3317.32Z" fill="#0c0c0c" fillOpacity="0.4"/>
<path d="M3556.4 2942.17C3564.03 2950.21 3564.03 2958.25 3556.4 2966.29L3522.05 3002.49C3514.42 3010.53 3506.79 3010.53 3499.15 3002.49L3464.8 2966.29C3457.17 2958.25 3457.17 2950.21 3464.8 2942.17L3499.15 2905.97C3506.79 2897.93 3514.42 2897.93 3522.05 2905.97L3556.4 2942.17Z" fill="#0c0c0c" fillOpacity="0.4"/>
<path d="M3566.59 2567.03C3575.91 2576.85 3575.91 2586.67 3566.59 2596.54L3524.6 2640.78C3515.28 2650.6 3505.96 2650.6 3496.6 2640.78L3454.61 2596.54C3445.29 2586.72 3445.29 2576.89 3454.61 2567.03L3496.6 2522.79C3505.92 2512.96 3515.24 2512.96 3524.6 2522.79L3566.59 2567.03Z" fill="#0c0c0c" fillOpacity="0.4"/>
<path d="M3576.77 2191.93C3587.78 2203.54 3587.78 2215.18 3576.77 2226.79L3527.15 2279.07C3516.14 2290.67 3505.08 2290.67 3494.07 2279.07L3444.46 2226.79C3433.44 2215.18 3433.44 2203.54 3444.46 2191.93L3494.07 2139.65C3505.08 2128.05 3516.14 2128.05 3527.15 2139.65L3576.77 2191.93Z" fill="#0c0c0c" fillOpacity="0.4"/>
<path d="M3586.92 1816.79C3599.66 1830.22 3599.66 1843.6 3586.92 1857.03L3529.67 1917.35C3516.93 1930.78 3504.22 1930.78 3491.48 1917.35L3434.23 1857.03C3421.49 1843.6 3421.49 1830.22 3434.23 1816.79L3491.48 1756.47C3504.22 1743.04 3516.93 1743.04 3529.67 1756.47L3586.92 1816.79Z" fill="#0c0c0c" fillOpacity="0.4"/>
<path d="M3597.11 1441.65C3611.55 1456.86 3611.55 1472.03 3597.11 1487.24L3532.23 1555.6C3517.8 1570.81 3503.4 1570.81 3488.97 1555.6L3424.09 1487.24C3409.65 1472.03 3409.65 1456.86 3424.09 1441.65L3488.97 1373.29C3503.4 1358.08 3517.8 1358.08 3532.23 1373.29L3597.11 1441.65Z" fill="#0c0c0c" fillOpacity="0.4"/>
<path d="M3607.3 1066.49C3623.43 1083.49 3623.43 1100.48 3607.3 1117.43L3534.75 1193.87C3518.63 1210.87 3502.5 1210.87 3486.42 1193.87L3413.87 1117.43C3397.74 1100.44 3397.74 1083.44 3413.87 1066.49L3486.42 990.049C3502.54 973.056 3518.67 973.056 3534.75 990.049L3607.3 1066.49Z" fill="#0c0c0c" fillOpacity="0.4"/>
<path d="M3617.48 691.397C3635.3 710.172 3635.3 728.946 3617.48 747.721L3537.3 832.206C3519.48 850.981 3501.67 850.981 3483.85 832.206L3403.67 747.721C3385.85 728.946 3385.85 710.172 3403.67 691.397L3483.85 606.912C3501.67 588.137 3519.48 588.137 3537.3 606.912L3617.48 691.397Z" fill="#0c0c0c" fillOpacity="0.4"/>
<path d="M3627.68 316.259C3647.19 336.815 3647.19 357.371 3627.68 377.928L3539.87 470.453C3520.36 491.01 3500.85 491.01 3481.35 470.453L3393.54 377.928C3374.03 357.371 3374.03 336.815 3393.54 316.259L3481.35 223.733C3500.85 203.177 3520.36 203.177 3539.87 223.733L3627.68 316.259Z" fill="#0c0c0c" fillOpacity="0.4"/>
<path d="M3182.57 3692.46C3186.82 3696.94 3186.82 3701.41 3182.57 3705.85L3163.48 3725.97C3159.23 3730.45 3154.98 3730.45 3150.77 3725.97L3131.68 3705.85C3127.43 3701.37 3127.43 3696.89 3131.68 3692.46L3150.77 3672.34C3155.02 3667.86 3159.27 3667.86 3163.48 3672.34L3182.57 3692.46Z" fill="#0c0c0c" fillOpacity="0.4"/>
<path d="M3192.74 3317.32C3198.68 3323.58 3198.68 3329.84 3192.74 3336.1L3166.02 3364.26C3160.08 3370.52 3154.14 3370.52 3148.2 3364.26L3121.47 3336.1C3115.53 3329.84 3115.53 3323.58 3121.47 3317.32L3148.2 3289.16C3154.14 3282.9 3160.08 3282.9 3166.02 3289.16L3192.74 3317.32Z" fill="#0c0c0c" fillOpacity="0.4"/>
<path d="M3202.94 2942.17C3210.57 2950.21 3210.57 2958.25 3202.94 2966.29L3168.58 3002.49C3160.95 3010.53 3153.32 3010.53 3145.69 3002.49L3111.34 2966.29C3103.71 2958.25 3103.71 2950.21 3111.34 2942.17L3145.69 2905.97C3153.32 2897.93 3160.95 2897.93 3168.58 2905.97L3202.94 2942.17Z" fill="#0c0c0c" fillOpacity="0.4"/>
<path d="M3213.13 2567.03C3222.45 2576.85 3222.45 2586.67 3213.13 2596.54L3171.14 2640.78C3161.82 2650.6 3152.5 2650.6 3143.13 2640.78L3101.15 2596.54C3091.83 2586.72 3091.83 2576.89 3101.15 2567.03L3143.13 2522.79C3152.46 2512.96 3161.78 2512.96 3171.14 2522.79L3213.13 2567.03Z" fill="#0c0c0c" fillOpacity="0.4"/>
<path d="M3223.3 2191.93C3234.32 2203.54 3234.32 2215.18 3223.3 2226.79L3173.69 2279.07C3162.67 2290.67 3151.62 2290.67 3140.61 2279.07L3090.99 2226.79C3079.98 2215.18 3079.98 2203.54 3090.99 2191.93L3140.61 2139.65C3151.62 2128.05 3162.67 2128.05 3173.69 2139.65L3223.3 2191.93Z" fill="#0c0c0c" fillOpacity="0.4"/>
<path d="M3233.46 1816.79C3246.2 1830.22 3246.2 1843.6 3233.46 1857.03L3176.21 1917.35C3163.47 1930.78 3150.76 1930.78 3138.02 1917.35L3080.77 1857.03C3068.03 1843.6 3068.03 1830.22 3080.77 1816.79L3138.02 1756.47C3150.76 1743.04 3163.47 1743.04 3176.21 1756.47L3233.46 1816.79Z" fill="#0c0c0c" fillOpacity="0.4"/>
<path d="M3243.65 1441.65C3258.08 1456.86 3258.08 1472.03 3243.65 1487.24L3178.77 1555.6C3164.33 1570.81 3149.94 1570.81 3135.5 1555.6L3070.62 1487.24C3056.19 1472.03 3056.19 1456.86 3070.62 1441.65L3135.5 1373.29C3149.94 1358.08 3164.33 1358.08 3178.77 1373.29L3243.65 1441.65Z" fill="#0c0c0c" fillOpacity="0.4"/>
<path d="M3253.83 1066.49C3269.96 1083.49 3269.96 1100.48 3253.83 1117.43L3181.28 1193.87C3165.15 1210.87 3149.03 1210.87 3132.94 1193.87L3060.39 1117.43C3044.27 1100.44 3044.27 1083.44 3060.39 1066.49L3132.94 990.049C3149.07 973.056 3165.2 973.056 3181.28 990.049L3253.83 1066.49Z" fill="#0c0c0c" fillOpacity="0.4"/>
<path d="M3264.02 691.397C3281.84 710.172 3281.84 728.946 3264.02 747.721L3183.84 832.206C3166.02 850.981 3148.2 850.981 3130.39 832.206L3050.21 747.721C3032.39 728.946 3032.39 710.172 3050.21 691.397L3130.39 606.911C3148.2 588.137 3166.02 588.137 3183.84 606.911L3264.02 691.397Z" fill="#0c0c0c" fillOpacity="0.4"/>
<path d="M3274.21 316.259C3293.72 336.815 3293.72 357.371 3274.21 377.928L3186.4 470.453C3166.89 491.01 3147.38 491.01 3127.87 470.453L3040.06 377.928C3020.55 357.371 3020.55 336.815 3040.06 316.259L3127.87 223.733C3147.38 203.177 3166.89 203.177 3186.4 223.733L3274.21 316.259Z" fill="#0c0c0c" fillOpacity="0.4"/>
<path d="M2829.1 3692.46C2833.34 3696.94 2833.34 3701.41 2829.1 3705.85L2810 3725.97C2805.75 3730.45 2801.5 3730.45 2797.3 3725.97L2778.2 3705.85C2773.95 3701.37 2773.95 3696.89 2778.2 3692.46L2797.3 3672.34C2801.54 3667.86 2805.79 3667.86 2810 3672.34L2829.1 3692.46Z" fill="#0c0c0c" fillOpacity="0.4"/>
<path d="M2839.27 3317.32C2845.21 3323.58 2845.21 3329.84 2839.27 3336.1L2812.55 3364.26C2806.61 3370.52 2800.67 3370.52 2794.73 3364.26L2768 3336.1C2762.06 3329.84 2762.06 3323.58 2768 3317.32L2794.73 3289.16C2800.67 3282.9 2806.61 3282.9 2812.55 3289.16L2839.27 3317.32Z" fill="#0c0c0c" fillOpacity="0.4"/>
<path d="M2849.46 2942.17C2857.1 2950.21 2857.1 2958.25 2849.46 2966.29L2815.11 3002.49C2807.48 3010.53 2799.85 3010.53 2792.22 3002.49L2757.86 2966.29C2750.23 2958.25 2750.23 2950.21 2757.86 2942.17L2792.22 2905.97C2799.85 2897.93 2807.48 2897.93 2815.11 2905.97L2849.46 2942.17Z" fill="#0c0c0c" fillOpacity="0.4"/>
<path d="M2859.65 2567.03C2868.97 2576.85 2868.97 2586.67 2859.65 2596.54L2817.67 2640.78C2808.35 2650.6 2799.02 2650.6 2789.66 2640.78L2747.67 2596.54C2738.35 2586.72 2738.35 2576.89 2747.67 2567.03L2789.66 2522.79C2798.98 2512.96 2808.3 2512.96 2817.67 2522.79L2859.65 2567.03Z" fill="#0c0c0c" fillOpacity="0.4"/>
<path d="M2869.85 2191.93C2880.86 2203.54 2880.86 2215.18 2869.85 2226.79L2820.23 2279.07C2809.22 2290.67 2798.17 2290.67 2787.15 2279.07L2737.54 2226.79C2726.53 2215.18 2726.53 2203.54 2737.54 2191.93L2787.15 2139.65C2798.17 2128.05 2809.22 2128.05 2820.23 2139.65L2869.85 2191.93Z" fill="#0c0c0c" fillOpacity="0.4"/>
<path d="M2879.99 1816.79C2892.74 1830.22 2892.74 1843.6 2879.99 1857.03L2822.74 1917.35C2810 1930.78 2797.3 1930.78 2784.55 1917.35L2727.3 1857.03C2714.56 1843.6 2714.56 1830.22 2727.3 1816.79L2784.55 1756.47C2797.3 1743.04 2810 1743.04 2822.74 1756.47L2879.99 1816.79Z" fill="#0c0c0c" fillOpacity="0.4"/>
<path d="M2890.18 1441.65C2904.62 1456.86 2904.62 1472.03 2890.18 1487.24L2825.3 1555.6C2810.87 1570.81 2796.47 1570.81 2782.04 1555.6L2717.16 1487.24C2702.72 1472.03 2702.72 1456.86 2717.16 1441.65L2782.04 1373.29C2796.47 1358.08 2810.87 1358.08 2825.3 1373.29L2890.18 1441.65Z" fill="#0c0c0c" fillOpacity="0.4"/>
<path d="M2900.37 1066.49C2916.5 1083.49 2916.5 1100.48 2900.37 1117.43L2827.82 1193.87C2811.69 1210.87 2795.57 1210.87 2779.48 1193.87L2706.93 1117.43C2690.81 1100.44 2690.81 1083.44 2706.93 1066.49L2779.48 990.049C2795.61 973.056 2811.74 973.056 2827.82 990.049L2900.37 1066.49Z" fill="#0c0c0c" fillOpacity="0.4"/>
<path d="M2910.55 691.397C2928.37 710.172 2928.37 728.946 2910.55 747.721L2830.37 832.206C2812.55 850.981 2794.74 850.981 2776.92 832.206L2696.74 747.721C2678.92 728.946 2678.92 710.172 2696.74 691.397L2776.92 606.912C2794.74 588.137 2812.55 588.137 2830.37 606.912L2910.55 691.397Z" fill="#0c0c0c" fillOpacity="0.4"/>
<path d="M2920.74 316.258C2940.25 336.815 2940.25 357.371 2920.74 377.927L2832.93 470.453C2813.42 491.009 2793.91 491.009 2774.4 470.453L2686.59 377.927C2667.09 357.371 2667.09 336.815 2686.59 316.258L2774.4 223.733C2793.91 203.176 2813.42 203.176 2832.93 223.733L2920.74 316.258Z" fill="#0c0c0c" fillOpacity="0.4"/>
<path d="M2475.63 3692.46C2479.87 3696.94 2479.87 3701.41 2475.63 3705.85L2456.53 3725.97C2452.28 3730.45 2448.03 3730.45 2443.83 3725.97L2424.73 3705.85C2420.48 3701.37 2420.48 3696.89 2424.73 3692.46L2443.83 3672.34C2448.07 3667.86 2452.32 3667.86 2456.53 3672.34L2475.63 3692.46Z" fill="#0c0c0c" fillOpacity="0.4"/>
<path d="M2485.82 3317.32C2491.76 3323.58 2491.76 3329.84 2485.82 3336.1L2459.09 3364.26C2453.15 3370.52 2447.21 3370.52 2441.27 3364.26L2414.55 3336.1C2408.61 3329.84 2408.61 3323.58 2414.55 3317.32L2441.27 3289.16C2447.21 3282.9 2453.15 3282.9 2459.09 3289.16L2485.82 3317.32Z" fill="#0c0c0c" fillOpacity="0.4"/>
<path d="M2496 2942.17C2503.63 2950.21 2503.63 2958.25 2496 2966.29L2461.64 3002.49C2454.01 3010.53 2446.38 3010.53 2438.75 3002.49L2404.39 2966.29C2396.76 2958.25 2396.76 2950.21 2404.39 2942.17L2438.75 2905.97C2446.38 2897.93 2454.01 2897.93 2461.64 2905.97L2496 2942.17Z" fill="#0c0c0c" fillOpacity="0.4"/>
<path d="M2506.2 2567.03C2515.52 2576.85 2515.52 2586.67 2506.2 2596.54L2464.21 2640.78C2454.89 2650.6 2445.53 2650.6 2436.2 2640.78L2394.22 2596.54C2384.9 2586.72 2384.9 2576.89 2394.22 2567.03L2436.2 2522.79C2445.53 2512.96 2454.89 2512.96 2464.21 2522.79L2506.2 2567.03Z" fill="#0c0c0c" fillOpacity="0.4"/>
<path d="M2516.33 2191.93C2527.35 2203.54 2527.35 2215.18 2516.33 2226.79L2466.72 2279.07C2455.7 2290.67 2444.65 2290.67 2433.64 2279.07L2384.02 2226.79C2373.01 2215.18 2373.01 2203.54 2384.02 2191.93L2433.64 2139.65C2444.65 2128.05 2455.7 2128.05 2466.72 2139.65L2516.33 2191.93Z" fill="#0c0c0c" fillOpacity="0.4"/>
<path d="M2526.52 1816.79C2539.26 1830.22 2539.26 1843.6 2526.52 1857.03L2469.27 1917.35C2456.53 1930.78 2443.82 1930.78 2431.08 1917.35L2373.83 1857.03C2361.09 1843.6 2361.09 1830.22 2373.83 1816.79L2431.08 1756.46C2443.82 1743.04 2456.53 1743.04 2469.27 1756.46L2526.52 1816.79Z" fill="#0c0c0c" fillOpacity="0.4"/>
<path d="M2536.71 1441.65C2551.14 1456.86 2551.14 1472.03 2536.71 1487.24L2471.83 1555.6C2457.4 1570.81 2443 1570.81 2428.57 1555.6L2363.69 1487.24C2349.25 1472.03 2349.25 1456.86 2363.69 1441.65L2428.57 1373.29C2443 1358.08 2457.4 1358.08 2471.83 1373.29L2536.71 1441.65Z" fill="#0c0c0c" fillOpacity="0.4"/>
<path d="M2546.91 1066.49C2563.03 1083.49 2563.03 1100.48 2546.91 1117.43L2474.36 1193.87C2458.23 1210.87 2442.1 1210.87 2426.02 1193.87L2353.47 1117.43C2337.34 1100.44 2337.34 1083.44 2353.47 1066.49L2426.02 990.049C2442.14 973.056 2458.27 973.056 2474.36 990.049L2546.91 1066.49Z" fill="#0c0c0c" fillOpacity="0.4"/>
<path d="M2557.08 691.397C2574.9 710.172 2574.9 728.946 2557.08 747.721L2476.9 832.206C2459.08 850.981 2441.26 850.981 2423.45 832.206L2343.27 747.721C2325.45 728.946 2325.45 710.172 2343.27 691.397L2423.45 606.912C2441.26 588.137 2459.08 588.137 2476.9 606.912L2557.08 691.397Z" fill="#0c0c0c" fillOpacity="0.4"/>
<path d="M2567.27 316.259C2586.78 336.815 2586.78 357.371 2567.27 377.928L2479.46 470.453C2459.95 491.01 2440.44 491.01 2420.93 470.453L2333.12 377.928C2313.61 357.371 2313.61 336.815 2333.12 316.259L2420.93 223.733C2440.44 203.177 2459.95 203.177 2479.46 223.733L2567.27 316.259Z" fill="#0c0c0c" fillOpacity="0.4"/>
<path d="M2122.17 3692.46C2126.41 3696.94 2126.41 3701.41 2122.17 3705.85L2103.07 3725.97C2098.82 3730.45 2094.57 3730.45 2090.37 3725.97L2071.27 3705.85C2067.02 3701.37 2067.02 3696.89 2071.27 3692.46L2090.37 3672.34C2094.61 3667.86 2098.86 3667.86 2103.07 3672.34L2122.17 3692.46Z" fill="#0c0c0c" fillOpacity="0.4"/>
<path d="M2132.35 3317.32C2138.29 3323.58 2138.29 3329.84 2132.35 3336.1L2105.62 3364.26C2099.68 3370.52 2093.75 3370.52 2087.81 3364.26L2061.08 3336.1C2055.14 3329.84 2055.14 3323.58 2061.08 3317.32L2087.81 3289.16C2093.75 3282.9 2099.68 3282.9 2105.62 3289.16L2132.35 3317.32Z" fill="#0c0c0c" fillOpacity="0.4"/>
<path d="M2142.55 2942.17C2150.18 2950.21 2150.18 2958.25 2142.55 2966.29L2108.2 3002.49C2100.57 3010.53 2092.94 3010.53 2085.31 3002.49L2050.95 2966.29C2043.32 2958.25 2043.32 2950.21 2050.95 2942.17L2085.31 2905.97C2092.94 2897.93 2100.57 2897.93 2108.2 2905.97L2142.55 2942.17Z" fill="#0c0c0c" fillOpacity="0.4"/>
<path d="M2152.73 2567.03C2162.05 2576.85 2162.05 2586.67 2152.73 2596.54L2110.74 2640.78C2101.42 2650.6 2092.06 2650.6 2082.74 2640.78L2040.75 2596.54C2031.43 2586.72 2031.43 2576.89 2040.75 2567.03L2082.74 2522.79C2092.06 2512.96 2101.42 2512.96 2110.74 2522.79L2152.73 2567.03Z" fill="#0c0c0c" fillOpacity="0.4"/>
<path d="M2162.87 2191.93C2173.89 2203.54 2173.89 2215.18 2162.87 2226.79L2113.26 2279.07C2102.24 2290.67 2091.19 2290.67 2080.18 2279.07L2030.56 2226.79C2019.55 2215.18 2019.55 2203.54 2030.56 2191.93L2080.18 2139.65C2091.19 2128.05 2102.24 2128.05 2113.26 2139.65L2162.87 2191.93Z" fill="#0c0c0c" fillOpacity="0.4"/>
<path d="M2173.06 1816.79C2185.8 1830.22 2185.8 1843.6 2173.06 1857.03L2115.81 1917.35C2103.07 1930.78 2090.36 1930.78 2077.62 1917.35L2020.37 1857.03C2007.63 1843.6 2007.63 1830.22 2020.37 1816.79L2077.62 1756.47C2090.36 1743.04 2103.07 1743.04 2115.81 1756.47L2173.06 1816.79Z" fill="#0c0c0c" fillOpacity="0.4"/>
<path d="M2183.24 1441.65C2197.68 1456.86 2197.68 1472.03 2183.24 1487.24L2118.37 1555.6C2103.93 1570.81 2089.54 1570.81 2075.1 1555.6L2010.22 1487.24C1995.79 1472.03 1995.79 1456.86 2010.22 1441.65L2075.1 1373.29C2089.54 1358.08 2103.93 1358.08 2118.37 1373.29L2183.24 1441.65Z" fill="#0c0c0c" fillOpacity="0.4"/>
<path d="M2193.43 1066.49C2209.56 1083.49 2209.56 1100.48 2193.43 1117.43L2120.88 1193.87C2104.76 1210.87 2088.63 1210.87 2072.54 1193.87L2000 1117.43C1983.87 1100.44 1983.87 1083.44 2000 1066.49L2072.54 990.049C2088.67 973.056 2104.8 973.056 2120.88 990.049L2193.43 1066.49Z" fill="#0c0c0c" fillOpacity="0.4"/>
<path d="M2203.62 691.397C2221.44 710.172 2221.44 728.946 2203.62 747.721L2123.44 832.206C2105.62 850.981 2087.81 850.981 2069.99 832.206L1989.81 747.721C1971.99 728.946 1971.99 710.172 1989.81 691.397L2069.99 606.912C2087.81 588.137 2105.62 588.137 2123.44 606.912L2203.62 691.397Z" fill="#0c0c0c" fillOpacity="0.4"/>
<path d="M2213.76 316.259C2233.27 336.815 2233.27 357.371 2213.76 377.928L2125.95 470.453C2106.44 491.01 2086.94 491.01 2067.43 470.453L1979.62 377.928C1960.11 357.371 1960.11 336.815 1979.62 316.259L2067.43 223.733C2086.94 203.177 2106.44 203.177 2125.95 223.733L2213.76 316.259Z" fill="#0c0c0c" fillOpacity="0.4"/>
<path d="M1768.7 3692.46C1772.94 3696.94 1772.94 3701.41 1768.7 3705.85L1749.6 3725.97C1745.35 3730.45 1741.1 3730.45 1736.9 3725.97L1717.8 3705.85C1713.55 3701.37 1713.55 3696.89 1717.8 3692.46L1736.9 3672.34C1741.15 3667.86 1745.39 3667.86 1749.6 3672.34L1768.7 3692.46Z" fill="#0c0c0c" fillOpacity="0.4"/>
<path d="M1778.88 3317.32C1784.82 3323.58 1784.82 3329.84 1778.88 3336.1L1752.16 3364.26C1746.22 3370.52 1740.28 3370.52 1734.34 3364.26L1707.61 3336.1C1701.67 3329.84 1701.67 3323.58 1707.61 3317.32L1734.34 3289.16C1740.28 3282.9 1746.22 3282.9 1752.16 3289.16L1778.88 3317.32Z" fill="#0c0c0c" fillOpacity="0.4"/>
<path d="M1789.06 2942.17C1796.69 2950.21 1796.69 2958.25 1789.06 2966.29L1754.71 3002.49C1747.08 3010.53 1739.45 3010.53 1731.81 3002.49L1697.46 2966.29C1689.83 2958.25 1689.83 2950.21 1697.46 2942.17L1731.81 2905.97C1739.45 2897.93 1747.08 2897.93 1754.71 2905.97L1789.06 2942.17Z" fill="#0c0c0c" fillOpacity="0.4"/>
<path d="M1799.21 2567.03C1808.53 2576.85 1808.53 2586.67 1799.21 2596.54L1757.23 2640.78C1747.9 2650.6 1738.54 2650.6 1729.22 2640.78L1687.23 2596.54C1677.91 2586.72 1677.91 2576.89 1687.23 2567.03L1729.22 2522.79C1738.54 2512.96 1747.9 2512.96 1757.23 2522.79L1799.21 2567.03Z" fill="#0c0c0c" fillOpacity="0.4"/>
<path d="M1809.4 2191.93C1820.42 2203.54 1820.42 2215.18 1809.4 2226.79L1759.79 2279.07C1748.78 2290.67 1737.72 2290.67 1726.71 2279.07L1677.09 2226.79C1666.08 2215.18 1666.08 2203.54 1677.09 2191.93L1726.71 2139.65C1737.72 2128.05 1748.78 2128.05 1759.79 2139.65L1809.4 2191.93Z" fill="#0c0c0c" fillOpacity="0.4"/>
<path d="M1819.59 1816.79C1832.33 1830.22 1832.33 1843.6 1819.59 1857.03L1762.34 1917.35C1749.6 1930.78 1736.89 1930.78 1724.15 1917.35L1666.9 1857.03C1654.16 1843.6 1654.16 1830.22 1666.9 1816.79L1724.15 1756.47C1736.89 1743.04 1749.6 1743.04 1762.34 1756.47L1819.59 1816.79Z" fill="#0c0c0c" fillOpacity="0.4"/>
<path d="M1829.77 1441.65C1844.21 1456.86 1844.21 1472.03 1829.77 1487.24L1764.9 1555.6C1750.46 1570.81 1736.07 1570.81 1721.63 1555.6L1656.75 1487.24C1642.32 1472.03 1642.32 1456.86 1656.75 1441.65L1721.63 1373.29C1736.07 1358.08 1750.46 1358.08 1764.9 1373.29L1829.77 1441.65Z" fill="#0c0c0c" fillOpacity="0.4"/>
<path d="M1839.96 1066.49C1856.09 1083.49 1856.09 1100.48 1839.96 1117.43L1767.41 1193.87C1751.28 1210.87 1735.16 1210.87 1719.07 1193.87L1646.52 1117.43C1630.4 1100.44 1630.4 1083.44 1646.52 1066.49L1719.07 990.049C1735.2 973.056 1751.33 973.056 1767.41 990.049L1839.96 1066.49Z" fill="#0c0c0c" fillOpacity="0.4"/>
<path d="M1850.15 691.397C1867.97 710.172 1867.97 728.946 1850.15 747.721L1769.97 832.206C1752.15 850.981 1734.33 850.981 1716.52 832.206L1636.34 747.721C1618.52 728.946 1618.52 710.172 1636.34 691.397L1716.52 606.912C1734.33 588.137 1752.15 588.137 1769.97 606.912L1850.15 691.397Z" fill="#0c0c0c" fillOpacity="0.4"/>
<path d="M1860.29 316.259C1879.8 336.815 1879.8 357.371 1860.29 377.928L1772.48 470.453C1752.98 491.01 1733.47 491.01 1713.96 470.453L1626.15 377.928C1606.64 357.371 1606.64 336.815 1626.15 316.259L1713.96 223.733C1733.47 203.177 1752.98 203.177 1772.48 223.733L1860.29 316.259Z" fill="#0c0c0c" fillOpacity="0.4"/>
<path d="M1415.23 3692.46C1419.48 3696.94 1419.48 3701.41 1415.23 3705.85L1396.14 3725.97C1391.89 3730.45 1387.64 3730.45 1383.43 3725.97L1364.34 3705.85C1360.09 3701.37 1360.09 3696.89 1364.34 3692.46L1383.43 3672.34C1387.68 3667.86 1391.93 3667.86 1396.14 3672.34L1415.23 3692.46Z" fill="#0c0c0c" fillOpacity="0.4"/>
<path d="M1425.42 3317.32C1431.36 3323.58 1431.36 3329.84 1425.42 3336.1L1398.69 3364.26C1392.75 3370.52 1386.82 3370.52 1380.88 3364.26L1354.15 3336.1C1348.21 3329.84 1348.21 3323.58 1354.15 3317.32L1380.88 3289.16C1386.82 3282.9 1392.75 3282.9 1398.69 3289.16L1425.42 3317.32Z" fill="#0c0c0c" fillOpacity="0.4"/>
<path d="M1435.61 2942.17C1443.24 2950.21 1443.24 2958.25 1435.61 2966.29L1401.25 3002.49C1393.62 3010.53 1385.99 3010.53 1378.36 3002.49L1344 2966.29C1336.37 2958.25 1336.37 2950.21 1344 2942.17L1378.36 2905.97C1385.99 2897.93 1393.62 2897.93 1401.25 2905.97L1435.61 2942.17Z" fill="#0c0c0c" fillOpacity="0.4"/>
<path d="M1445.75 2567.03C1455.07 2576.85 1455.07 2586.67 1445.75 2596.54L1403.76 2640.78C1394.44 2650.6 1385.08 2650.6 1375.76 2640.78L1333.77 2596.54C1324.45 2586.72 1324.45 2576.89 1333.77 2567.03L1375.76 2522.79C1385.08 2512.96 1394.44 2512.96 1403.76 2522.79L1445.75 2567.03Z" fill="#0c0c0c" fillOpacity="0.4"/>
<path d="M1455.94 2191.93C1466.96 2203.54 1466.96 2215.18 1455.94 2226.79L1406.33 2279.07C1395.31 2290.67 1384.26 2290.67 1373.25 2279.07L1323.63 2226.79C1312.62 2215.18 1312.62 2203.54 1323.63 2191.93L1373.25 2139.65C1384.26 2128.05 1395.31 2128.05 1406.33 2139.65L1455.94 2191.93Z" fill="#0c0c0c" fillOpacity="0.4"/>
<path d="M1466.13 1816.79C1478.87 1830.22 1478.87 1843.6 1466.13 1857.03L1408.88 1917.35C1396.14 1930.78 1383.43 1930.78 1370.69 1917.35L1313.44 1857.03C1300.7 1843.6 1300.7 1830.22 1313.44 1816.79L1370.69 1756.47C1383.43 1743.04 1396.14 1743.04 1408.88 1756.47L1466.13 1816.79Z" fill="#0c0c0c" fillOpacity="0.4"/>
<path d="M1476.31 1441.65C1490.75 1456.86 1490.75 1472.03 1476.31 1487.24L1411.43 1555.6C1397 1570.81 1382.6 1570.81 1368.17 1555.6L1303.29 1487.24C1288.85 1472.03 1288.85 1456.86 1303.29 1441.65L1368.17 1373.29C1382.6 1358.08 1397 1358.08 1411.43 1373.29L1476.31 1441.65Z" fill="#0c0c0c" fillOpacity="0.4"/>
<path d="M1486.51 1066.49C1502.63 1083.49 1502.63 1100.48 1486.51 1117.43L1413.96 1193.87C1397.83 1210.87 1381.7 1210.87 1365.62 1193.87L1293.07 1117.43C1276.94 1100.44 1276.94 1083.44 1293.07 1066.49L1365.62 990.049C1381.75 973.057 1397.87 973.057 1413.96 990.049L1486.51 1066.49Z" fill="#0c0c0c" fillOpacity="0.4"/>
<path d="M1496.68 691.397C1514.5 710.172 1514.5 728.946 1496.68 747.721L1416.5 832.206C1398.69 850.981 1380.87 850.981 1363.05 832.206L1282.87 747.721C1265.05 728.946 1265.05 710.172 1282.87 691.397L1363.05 606.912C1380.87 588.137 1398.69 588.137 1416.5 606.912L1496.68 691.397Z" fill="#0c0c0c" fillOpacity="0.4"/>
<path d="M1506.84 316.259C1526.35 336.815 1526.35 357.371 1506.84 377.928L1419.03 470.453C1399.52 491.01 1380.01 491.01 1360.5 470.453L1272.69 377.928C1253.18 357.371 1253.18 336.815 1272.69 316.259L1360.5 223.733C1380.01 203.177 1399.52 203.177 1419.03 223.733L1506.84 316.259Z" fill="#0c0c0c" fillOpacity="0.4"/>
<path d="M1061.76 3692.46C1066.01 3696.94 1066.01 3701.41 1061.76 3705.85L1042.66 3725.97C1038.41 3730.45 1034.17 3730.45 1029.96 3725.97L1010.86 3705.85C1006.62 3701.37 1006.62 3696.89 1010.86 3692.46L1029.96 3672.34C1034.21 3667.86 1038.46 3667.86 1042.66 3672.34L1061.76 3692.46Z" fill="#0c0c0c" fillOpacity="0.4"/>
<path d="M1071.95 3317.32C1077.89 3323.58 1077.89 3329.84 1071.95 3336.1L1045.23 3364.26C1039.29 3370.52 1033.35 3370.52 1027.41 3364.26L1000.68 3336.1C994.742 3329.84 994.742 3323.58 1000.68 3317.32L1027.41 3289.16C1033.35 3282.9 1039.29 3282.9 1045.23 3289.16L1071.95 3317.32Z" fill="#0c0c0c" fillOpacity="0.4"/>
<path d="M1082.14 2942.17C1089.77 2950.21 1089.77 2958.25 1082.14 2966.29L1047.78 3002.49C1040.15 3010.53 1032.52 3010.53 1024.89 3002.49L990.533 2966.29C982.902 2958.25 982.902 2950.21 990.533 2942.17L1024.89 2905.97C1032.52 2897.93 1040.15 2897.93 1047.78 2905.97L1082.14 2942.17Z" fill="#0c0c0c" fillOpacity="0.4"/>
<path d="M1092.28 2567.03C1101.6 2576.85 1101.6 2586.67 1092.28 2596.54L1050.3 2640.78C1040.97 2650.6 1031.61 2650.6 1022.29 2640.78L980.303 2596.54C970.982 2586.72 970.982 2576.89 980.303 2567.03L1022.29 2522.79C1031.61 2512.96 1040.97 2512.96 1050.3 2522.79L1092.28 2567.03Z" fill="#0c0c0c" fillOpacity="0.4"/>
<path d="M1102.47 2191.93C1113.48 2203.54 1113.48 2215.18 1102.47 2226.79L1052.85 2279.07C1041.84 2290.67 1030.79 2290.67 1019.78 2279.07L970.159 2226.79C959.146 2215.18 959.146 2203.54 970.159 2191.93L1019.78 2139.65C1030.79 2128.05 1041.84 2128.05 1052.85 2139.65L1102.47 2191.93Z" fill="#0c0c0c" fillOpacity="0.4"/>
<path d="M1112.65 1816.79C1125.4 1830.22 1125.4 1843.6 1112.65 1857.03L1055.4 1917.35C1042.66 1930.78 1029.96 1930.78 1017.21 1917.35L959.965 1857.03C947.22 1843.6 947.22 1830.22 959.965 1816.79L1017.21 1756.47C1029.96 1743.04 1042.66 1743.04 1055.4 1756.47L1112.65 1816.79Z" fill="#0c0c0c" fillOpacity="0.4"/>
<path d="M1122.85 1441.65C1137.29 1456.86 1137.29 1472.03 1122.85 1487.24L1057.98 1555.6C1043.54 1570.81 1029.15 1570.81 1014.71 1555.6L949.832 1487.24C935.396 1472.03 935.396 1456.86 949.832 1441.65L1014.71 1373.29C1029.15 1358.08 1043.54 1358.08 1057.98 1373.29L1122.85 1441.65Z" fill="#0c0c0c" fillOpacity="0.4"/>
<path d="M1133.04 1066.49C1149.17 1083.49 1149.17 1100.48 1133.04 1117.43L1060.49 1193.87C1044.37 1210.87 1028.24 1210.87 1012.15 1193.87L939.604 1117.43C923.478 1100.44 923.478 1083.44 939.604 1066.49L1012.15 990.049C1028.28 973.057 1044.41 973.057 1060.49 990.049L1133.04 1066.49Z" fill="#0c0c0c" fillOpacity="0.4"/>
<path d="M1143.18 691.397C1161 710.172 1161 728.946 1143.18 747.721L1063 832.206C1045.19 850.981 1027.37 850.981 1009.55 832.206L929.372 747.721C911.554 728.946 911.554 710.172 929.372 691.397L1009.55 606.912C1027.37 588.137 1045.19 588.137 1063 606.912L1143.18 691.397Z" fill="#0c0c0c" fillOpacity="0.4"/>
<path d="M1153.37 316.259C1172.88 336.815 1172.88 357.371 1153.37 377.928L1065.56 470.453C1046.05 491.01 1026.55 491.01 1007.04 470.453L919.227 377.928C899.718 357.371 899.718 336.815 919.227 316.259L1007.04 223.733C1026.55 203.177 1046.05 203.177 1065.56 223.733L1153.37 316.259Z" fill="#0c0c0c" fillOpacity="0.4"/>
<path d="M708.29 3692.46C712.539 3696.94 712.539 3701.41 708.29 3705.85L689.194 3725.97C684.946 3730.45 680.698 3730.45 676.491 3725.97L657.395 3705.85C653.147 3701.37 653.147 3696.89 657.395 3692.46L676.491 3672.34C680.739 3667.86 684.987 3667.86 689.194 3672.34L708.29 3692.46Z" fill="#0c0c0c" fillOpacity="0.4"/>
<path d="M718.487 3317.32C724.426 3323.58 724.426 3329.84 718.487 3336.1L691.761 3364.26C685.821 3370.52 679.882 3370.52 673.943 3364.26L647.216 3336.1C641.277 3329.84 641.277 3323.58 647.216 3317.32L673.943 3289.16C679.882 3282.9 685.821 3282.9 691.761 3289.16L718.487 3317.32Z" fill="#0c0c0c" fillOpacity="0.4"/>
<path d="M728.641 2942.17C736.271 2950.21 736.271 2958.25 728.641 2966.29L694.284 3002.49C686.654 3010.53 679.023 3010.53 671.393 3002.49L637.036 2966.29C629.406 2958.25 629.406 2950.21 637.036 2942.17L671.393 2905.97C679.023 2897.93 686.654 2897.93 694.284 2905.97L728.641 2942.17Z" fill="#0c0c0c" fillOpacity="0.4"/>
<path d="M738.818 2567.03C748.139 2576.85 748.139 2586.67 738.818 2596.54L696.831 2640.78C687.509 2650.6 678.147 2650.6 668.826 2640.78L626.838 2596.54C617.517 2586.72 617.517 2576.89 626.838 2567.03L668.826 2522.79C678.147 2512.96 687.509 2512.96 696.831 2522.79L738.818 2567.03Z" fill="#0c0c0c" fillOpacity="0.4"/>
<path d="M749.006 2191.93C760.019 2203.54 760.019 2215.18 749.006 2226.79L699.389 2279.07C688.377 2290.67 677.323 2290.67 666.311 2279.07L616.694 2226.79C605.681 2215.18 605.681 2203.54 616.694 2191.93L666.311 2139.65C677.323 2128.05 688.377 2128.05 699.389 2139.65L749.006 2191.93Z" fill="#0c0c0c" fillOpacity="0.4"/>
<path d="M759.192 1816.79C771.936 1830.22 771.936 1843.6 759.192 1857.03L701.944 1917.35C689.199 1930.78 676.496 1930.78 663.751 1917.35L606.504 1857.03C593.759 1843.6 593.759 1830.22 606.504 1816.79L663.751 1756.47C676.496 1743.04 689.199 1743.04 701.944 1756.47L759.192 1816.79Z" fill="#0c0c0c" fillOpacity="0.4"/>
<path d="M769.38 1441.65C783.816 1456.86 783.816 1472.03 769.38 1487.24L704.502 1555.6C690.067 1570.81 675.672 1570.81 661.237 1555.6L596.359 1487.24C581.924 1472.03 581.924 1456.86 596.359 1441.65L661.237 1373.29C675.672 1358.08 690.067 1358.08 704.502 1373.29L769.38 1441.65Z" fill="#0c0c0c" fillOpacity="0.4"/>
<path d="M779.561 1066.49C795.688 1083.49 795.688 1100.48 779.561 1117.43L707.012 1193.87C690.885 1210.87 674.759 1210.87 658.673 1193.87L586.124 1117.43C569.997 1100.44 569.997 1083.44 586.124 1066.49L658.673 990.049C674.8 973.057 690.926 973.057 707.012 990.049L779.561 1066.49Z" fill="#0c0c0c" fillOpacity="0.4"/>
<path d="M789.711 691.397C807.529 710.172 807.529 728.946 789.711 747.721L709.531 832.206C691.714 850.981 673.896 850.981 656.078 832.206L575.899 747.721C558.081 728.946 558.081 710.172 575.899 691.397L656.078 606.911C673.896 588.137 691.714 588.137 709.531 606.911L789.711 691.397Z" fill="#0c0c0c" fillOpacity="0.4"/>
<path d="M799.904 316.258C819.412 336.815 819.412 357.371 799.904 377.927L712.094 470.453C692.585 491.009 673.077 491.009 653.568 470.453L565.758 377.927C546.249 357.371 546.249 336.815 565.758 316.258L653.568 223.733C673.077 203.176 692.585 203.176 712.094 223.733L799.904 316.258Z" fill="#0c0c0c" fillOpacity="0.4"/>
<path d="M354.833 3692.46C359.082 3696.94 359.082 3701.41 354.833 3705.85L335.737 3725.97C331.489 3730.45 327.241 3730.45 323.034 3725.97L303.937 3705.85C299.689 3701.37 299.689 3696.89 303.937 3692.46L323.034 3672.34C327.282 3667.86 331.53 3667.86 335.737 3672.34L354.833 3692.46Z" fill="#0c0c0c" fillOpacity="0.4"/>
<path d="M365.022 3317.32C370.961 3323.58 370.961 3329.84 365.022 3336.1L338.296 3364.26C332.356 3370.52 326.417 3370.52 320.478 3364.26L293.752 3336.1C287.812 3329.84 287.812 3323.58 293.752 3317.32L320.478 3289.16C326.417 3282.9 332.356 3282.9 338.296 3289.16L365.022 3317.32Z" fill="#0c0c0c" fillOpacity="0.4"/>
<path d="M375.164 2942.17C382.794 2950.21 382.794 2958.25 375.164 2966.29L340.807 3002.49C333.177 3010.53 325.547 3010.53 317.916 3002.49L283.56 2966.29C275.929 2958.25 275.929 2950.21 283.56 2942.17L317.916 2905.97C325.547 2897.93 333.177 2897.93 340.807 2905.97L375.164 2942.17Z" fill="#0c0c0c" fillOpacity="0.4"/>
<path d="M385.353 2567.03C394.674 2576.85 394.674 2586.67 385.353 2596.54L343.366 2640.78C334.045 2650.6 324.682 2650.6 315.361 2640.78L273.374 2596.54C264.053 2586.72 264.053 2576.89 273.374 2567.03L315.361 2522.79C324.682 2512.96 334.045 2512.96 343.366 2522.79L385.353 2567.03Z" fill="#0c0c0c" fillOpacity="0.4"/>
<path d="M395.545 2191.93C406.558 2203.54 406.558 2215.18 395.545 2226.79L345.928 2279.07C334.916 2290.67 323.862 2290.67 312.85 2279.07L263.233 2226.79C252.22 2215.18 252.22 2203.54 263.233 2191.93L312.85 2139.65C323.862 2128.05 334.916 2128.05 345.928 2139.65L395.545 2191.93Z" fill="#0c0c0c" fillOpacity="0.4"/>
<path d="M405.723 1816.79C418.467 1830.22 418.467 1843.6 405.723 1857.03L348.475 1917.35C335.731 1930.78 323.027 1930.78 310.283 1917.35L253.035 1857.03C240.291 1843.6 240.291 1830.22 253.035 1816.79L310.283 1756.47C323.027 1743.04 335.731 1743.04 348.475 1756.47L405.723 1816.79Z" fill="#0c0c0c" fillOpacity="0.4"/>
<path d="M415.923 1441.65C430.359 1456.86 430.359 1472.03 415.923 1487.24L351.045 1555.6C336.61 1570.81 322.215 1570.81 307.78 1555.6L242.902 1487.24C228.467 1472.03 228.467 1456.86 242.902 1441.65L307.78 1373.29C322.215 1358.08 336.61 1358.08 351.045 1373.29L415.923 1441.65Z" fill="#0c0c0c" fillOpacity="0.4"/>
<path d="M426.069 1066.49C442.196 1083.49 442.196 1100.48 426.069 1117.43L353.52 1193.87C337.393 1210.87 321.267 1210.87 305.181 1193.87L232.632 1117.43C216.505 1100.44 216.505 1083.44 232.632 1066.49L305.181 990.049C321.308 973.057 337.435 973.057 353.52 990.049L426.069 1066.49Z" fill="#0c0c0c" fillOpacity="0.4"/>
<path d="M436.246 691.397C454.064 710.172 454.064 728.946 436.246 747.721L356.067 832.206C338.249 850.981 320.431 850.981 302.613 832.206L222.434 747.721C204.616 728.946 204.616 710.172 222.434 691.397L302.613 606.911C320.431 588.137 338.249 588.137 356.067 606.911L436.246 691.397Z" fill="#0c0c0c" fillOpacity="0.4"/>
<path d="M446.435 316.258C465.944 336.815 465.944 357.371 446.435 377.927L358.625 470.453C339.116 491.009 319.608 491.009 300.099 470.453L212.289 377.927C192.781 357.371 192.781 336.815 212.289 316.258L300.099 223.733C319.608 203.176 339.116 203.176 358.625 223.733L446.435 316.258Z" fill="#0c0c0c" fillOpacity="0.4"/>
<path d="M3709.96 3879.42C3713.71 3883.38 3713.71 3887.38 3709.96 3891.33L3693.01 3909.19C3689.25 3913.15 3685.46 3913.15 3681.71 3909.19L3664.75 3891.33C3661 3887.38 3661 3883.38 3664.75 3879.42L3681.71 3861.56C3685.46 3857.61 3689.25 3857.61 3693.01 3861.56L3709.96 3879.42Z" fill="#0c0c0c" fillOpacity="0.4"/>
<path d="M3721.26 3503.99C3726.91 3509.94 3726.91 3515.9 3721.26 3521.85L3695.81 3548.67C3690.16 3554.62 3684.51 3554.62 3678.86 3548.67L3653.41 3521.85C3647.76 3515.9 3647.76 3509.94 3653.41 3503.99L3678.86 3477.18C3684.51 3471.22 3690.16 3471.22 3695.81 3477.18L3721.26 3503.99Z" fill="#0c0c0c" fillOpacity="0.4"/>
<path d="M3732.56 3128.58C3740.11 3136.54 3740.11 3144.49 3732.56 3152.44L3698.61 3188.21C3691.07 3196.16 3683.52 3196.16 3675.97 3188.21L3642.03 3152.44C3634.48 3144.49 3634.48 3136.54 3642.03 3128.58L3675.97 3092.81C3683.52 3084.86 3691.07 3084.86 3698.61 3092.81L3732.56 3128.58Z" fill="#0c0c0c" fillOpacity="0.4"/>
<path d="M3743.91 2753.12C3753.36 2763.08 3753.36 2772.98 3743.91 2782.94L3701.51 2827.61C3692.07 2837.56 3682.66 2837.56 3673.22 2827.61L3630.82 2782.94C3621.37 2772.98 3621.37 2763.08 3630.82 2753.12L3673.22 2708.45C3682.66 2698.49 3692.07 2698.49 3701.51 2708.45L3743.91 2753.12Z" fill="#0c0c0c" fillOpacity="0.4"/>
<path d="M3755.2 2377.68C3766.5 2389.59 3766.5 2401.5 3755.2 2413.45L3704.3 2467.08C3693 2478.98 3681.7 2478.98 3670.36 2467.08L3619.46 2413.45C3608.16 2401.54 3608.16 2389.63 3619.46 2377.68L3670.36 2324.05C3681.66 2312.14 3692.96 2312.14 3704.3 2324.05L3755.2 2377.68Z" fill="#0c0c0c" fillOpacity="0.4"/>
<path d="M3766.5 2002.27C3779.7 2016.18 3779.7 2030.09 3766.5 2044L3707.11 2106.58C3693.91 2120.48 3680.71 2120.48 3667.52 2106.58L3608.12 2044C3594.93 2030.09 3594.93 2016.18 3608.12 2002.27L3667.52 1939.69C3680.71 1925.79 3693.91 1925.79 3707.11 1939.69L3766.5 2002.27Z" fill="#0c0c0c" fillOpacity="0.4"/>
<path d="M3777.8 1626.83C3792.89 1642.73 3792.89 1658.6 3777.8 1674.5L3709.95 1745.99C3694.86 1761.9 3679.8 1761.9 3664.71 1745.99L3596.86 1674.5C3581.76 1658.6 3581.76 1642.73 3596.86 1626.83L3664.71 1555.34C3679.8 1539.43 3694.86 1539.43 3709.95 1555.34L3777.8 1626.83Z" fill="#0c0c0c" fillOpacity="0.4"/>
<path d="M3789.14 1251.37C3806.09 1269.23 3806.09 1287.14 3789.14 1305L3712.8 1385.44C3695.85 1403.31 3678.85 1403.31 3661.9 1385.44L3585.56 1305C3568.61 1287.14 3568.61 1269.23 3585.56 1251.37L3661.9 1170.93C3678.85 1153.07 3695.85 1153.07 3712.8 1170.93L3789.14 1251.37Z" fill="#0c0c0c" fillOpacity="0.4"/>
<path d="M3800.44 875.967C3819.29 895.828 3819.29 915.689 3800.44 935.55L3715.6 1024.95C3696.75 1044.81 3677.9 1044.81 3659.05 1024.95L3574.21 935.55C3555.36 915.689 3555.36 895.828 3574.21 875.967L3659.05 786.57C3677.9 766.709 3696.75 766.709 3715.6 786.57L3800.44 875.967Z" fill="#0c0c0c" fillOpacity="0.4"/>
<path d="M3811.74 500.533C3832.49 522.393 3832.49 544.253 3811.74 566.07L3718.4 664.419C3697.66 686.279 3676.91 686.279 3656.21 664.419L3562.87 566.07C3542.13 544.21 3542.13 522.35 3562.87 500.533L3656.21 402.184C3676.95 380.324 3697.7 380.324 3718.4 402.184L3811.74 500.533Z" fill="#0c0c0c" fillOpacity="0.4"/>
<path d="M3823.05 125.121C3845.65 148.937 3845.65 172.796 3823.05 196.612L3721.26 303.87C3698.65 327.686 3676.01 327.686 3653.41 303.87L3551.62 196.612C3529.02 172.796 3529.02 148.937 3551.62 125.121L3653.41 17.8624C3676.01 -5.95346 3698.65 -5.95346 3721.26 17.8624L3823.05 125.121Z" fill="#0c0c0c" fillOpacity="0.4"/>
<path d="M3356.49 3879.42C3360.25 3883.38 3360.25 3887.38 3356.49 3891.33L3339.54 3909.19C3335.79 3913.15 3331.99 3913.15 3328.24 3909.19L3311.29 3891.33C3307.54 3887.38 3307.54 3883.38 3311.29 3879.42L3328.24 3861.56C3331.99 3857.61 3335.79 3857.61 3339.54 3861.56L3356.49 3879.42Z" fill="#0c0c0c" fillOpacity="0.4"/>
<path d="M3367.79 3503.99C3373.44 3509.94 3373.44 3515.9 3367.79 3521.85L3342.34 3548.67C3336.69 3554.62 3331.04 3554.62 3325.39 3548.67L3299.94 3521.85C3294.29 3515.9 3294.29 3509.94 3299.94 3503.99L3325.39 3477.18C3331.04 3471.22 3336.69 3471.22 3342.34 3477.18L3367.79 3503.99Z" fill="#0c0c0c" fillOpacity="0.4"/>
<path d="M3379.1 3128.58C3386.64 3136.53 3386.64 3144.49 3379.1 3152.44L3345.15 3188.21C3337.6 3196.16 3330.06 3196.16 3322.51 3188.21L3288.57 3152.44C3281.02 3144.49 3281.02 3136.53 3288.57 3128.58L3322.51 3092.81C3330.06 3084.86 3337.6 3084.86 3345.15 3092.81L3379.1 3128.58Z" fill="#0c0c0c" fillOpacity="0.4"/>
<path d="M3390.4 2753.12C3399.84 2763.08 3399.84 2772.98 3390.4 2782.94L3348 2827.61C3338.55 2837.56 3329.15 2837.56 3319.7 2827.61L3277.3 2782.94C3267.86 2772.98 3267.86 2763.08 3277.3 2753.12L3319.7 2708.45C3329.15 2698.49 3338.55 2698.49 3348 2708.45L3390.4 2753.12Z" fill="#0c0c0c" fillOpacity="0.4"/>
<path d="M3401.73 2377.68C3413.03 2389.59 3413.03 2401.5 3401.73 2413.45L3350.84 2467.08C3339.53 2478.98 3328.23 2478.98 3316.89 2467.08L3266 2413.45C3254.69 2401.54 3254.69 2389.63 3266 2377.68L3316.89 2324.05C3328.19 2312.14 3339.49 2312.14 3350.84 2324.05L3401.73 2377.68Z" fill="#0c0c0c" fillOpacity="0.4"/>
<path d="M3413.04 2002.27C3426.24 2016.18 3426.24 2030.09 3413.04 2044L3353.65 2106.58C3340.45 2120.48 3327.25 2120.48 3314.05 2106.58L3254.66 2044C3241.46 2030.09 3241.46 2016.18 3254.66 2002.27L3314.05 1939.69C3327.25 1925.79 3340.45 1925.79 3353.65 1939.69L3413.04 2002.27Z" fill="#0c0c0c" fillOpacity="0.4"/>
<path d="M3424.33 1626.83C3439.43 1642.73 3439.43 1658.6 3424.33 1674.5L3356.49 1745.99C3341.39 1761.9 3326.34 1761.9 3311.24 1745.99L3243.39 1674.5C3228.3 1658.6 3228.3 1642.73 3243.39 1626.83L3311.24 1555.34C3326.34 1539.43 3341.39 1539.43 3356.49 1555.34L3424.33 1626.83Z" fill="#0c0c0c" fillOpacity="0.4"/>
<path d="M3435.64 1251.37C3452.59 1269.23 3452.59 1287.14 3435.64 1305L3359.3 1385.44C3342.35 1403.31 3325.35 1403.31 3308.4 1385.44L3232.06 1305C3215.11 1287.14 3215.11 1269.23 3232.06 1251.37L3308.4 1170.93C3325.35 1153.07 3342.35 1153.07 3359.3 1170.93L3435.64 1251.37Z" fill="#0c0c0c" fillOpacity="0.4"/>
<path d="M3446.98 875.967C3465.83 895.828 3465.83 915.689 3446.98 935.55L3362.14 1024.95C3343.3 1044.81 3324.45 1044.81 3305.6 1024.95L3220.76 935.55C3201.91 915.689 3201.91 895.828 3220.76 875.967L3305.6 786.57C3324.45 766.709 3343.3 766.709 3362.14 786.57L3446.98 875.967Z" fill="#0c0c0c" fillOpacity="0.4"/>
<path d="M3458.28 500.533C3479.02 522.393 3479.02 544.253 3458.28 566.07L3364.94 664.419C3344.19 686.279 3323.45 686.279 3302.74 664.419L3209.41 566.07C3188.66 544.21 3188.66 522.35 3209.41 500.533L3302.74 402.184C3323.49 380.324 3344.24 380.324 3364.94 402.184L3458.28 500.533Z" fill="#0c0c0c" fillOpacity="0.4"/>
<path d="M3469.58 125.121C3492.18 148.937 3492.18 172.796 3469.58 196.612L3367.79 303.871C3345.19 327.686 3322.54 327.686 3299.94 303.871L3198.15 196.612C3175.55 172.796 3175.55 148.937 3198.15 125.121L3299.94 17.8629C3322.54 -5.95297 3345.19 -5.95297 3367.79 17.8629L3469.58 125.121Z" fill="#0c0c0c" fillOpacity="0.4"/>
<path d="M3003.02 3879.42C3006.77 3883.38 3006.77 3887.38 3003.02 3891.33L2986.07 3909.19C2982.32 3913.15 2978.52 3913.15 2974.77 3909.19L2957.82 3891.33C2954.06 3887.38 2954.06 3883.38 2957.82 3879.42L2974.77 3861.56C2978.52 3857.61 2982.32 3857.61 2986.07 3861.56L3003.02 3879.42Z" fill="#0c0c0c" fillOpacity="0.4"/>
<path d="M3014.32 3503.99C3019.98 3509.94 3019.98 3515.9 3014.32 3521.85L2988.88 3548.67C2983.23 3554.62 2977.58 3554.62 2971.93 3548.67L2946.48 3521.85C2940.83 3515.9 2940.83 3509.94 2946.48 3503.99L2971.93 3477.18C2977.58 3471.22 2983.23 3471.22 2988.88 3477.18L3014.32 3503.99Z" fill="#0c0c0c" fillOpacity="0.4"/>
<path d="M3025.62 3128.58C3033.17 3136.54 3033.17 3144.49 3025.62 3152.44L2991.68 3188.21C2984.13 3196.16 2976.58 3196.16 2969.04 3188.21L2935.09 3152.44C2927.54 3144.49 2927.54 3136.54 2935.09 3128.58L2969.04 3092.81C2976.58 3084.86 2984.13 3084.86 2991.68 3092.81L3025.62 3128.58Z" fill="#0c0c0c" fillOpacity="0.4"/>
<path d="M3036.93 2753.12C3046.37 2763.08 3046.37 2772.98 3036.93 2782.94L2994.53 2827.61C2985.08 2837.56 2975.68 2837.56 2966.23 2827.61L2923.84 2782.94C2914.39 2772.98 2914.39 2763.08 2923.84 2753.12L2966.23 2708.45C2975.68 2698.49 2985.08 2698.49 2994.53 2708.45L3036.93 2753.12Z" fill="#0c0c0c" fillOpacity="0.4"/>
<path d="M3048.27 2377.68C3059.57 2389.59 3059.57 2401.5 3048.27 2413.45L2997.37 2467.08C2986.07 2478.98 2974.77 2478.98 2963.43 2467.08L2912.53 2413.45C2901.23 2401.54 2901.23 2389.63 2912.53 2377.68L2963.43 2324.05C2974.73 2312.14 2986.03 2312.14 2997.37 2324.05L3048.27 2377.68Z" fill="#0c0c0c" fillOpacity="0.4"/>
<path d="M3059.57 2002.27C3072.77 2016.18 3072.77 2030.09 3059.57 2044L3000.18 2106.58C2986.98 2120.48 2973.78 2120.48 2960.58 2106.58L2901.19 2044C2887.99 2030.09 2887.99 2016.18 2901.19 2002.27L2960.58 1939.69C2973.78 1925.79 2986.98 1925.79 3000.18 1939.69L3059.57 2002.27Z" fill="#0c0c0c" fillOpacity="0.4"/>
<path d="M3070.88 1626.83C3085.98 1642.73 3085.98 1658.6 3070.88 1674.5L3003.03 1745.99C2987.94 1761.9 2972.88 1761.9 2957.79 1745.99L2889.94 1674.5C2874.85 1658.6 2874.85 1642.73 2889.94 1626.83L2957.79 1555.34C2972.88 1539.43 2987.94 1539.43 3003.03 1555.34L3070.88 1626.83Z" fill="#0c0c0c" fillOpacity="0.4"/>
<path d="M3082.17 1251.37C3099.12 1269.23 3099.12 1287.14 3082.17 1305L3005.83 1385.44C2988.87 1403.31 2971.88 1403.31 2954.93 1385.44L2878.59 1305C2861.63 1287.14 2861.63 1269.23 2878.59 1251.37L2954.93 1170.93C2971.88 1153.07 2988.87 1153.07 3005.83 1170.93L3082.17 1251.37Z" fill="#0c0c0c" fillOpacity="0.4"/>
<path d="M3093.52 875.967C3112.37 895.828 3112.37 915.689 3093.52 935.55L3008.68 1024.95C2989.83 1044.81 2970.98 1044.81 2952.13 1024.95L2867.29 935.55C2848.44 915.689 2848.44 895.828 2867.29 875.967L2952.13 786.57C2970.98 766.709 2989.83 766.709 3008.68 786.57L3093.52 875.967Z" fill="#0c0c0c" fillOpacity="0.4"/>
<path d="M3104.82 500.533C3125.57 522.393 3125.57 544.253 3104.82 566.07L3011.49 664.419C2990.74 686.279 2969.99 686.279 2949.29 664.419L2855.95 566.07C2835.21 544.21 2835.21 522.35 2855.95 500.533L2949.29 402.184C2970.04 380.324 2990.78 380.324 3011.49 402.184L3104.82 500.533Z" fill="#0c0c0c" fillOpacity="0.4"/>
<path d="M3116.11 125.121C3138.71 148.937 3138.71 172.796 3116.11 196.612L3014.32 303.871C2991.72 327.686 2969.07 327.686 2946.47 303.871L2844.68 196.612C2822.08 172.796 2822.08 148.937 2844.68 125.121L2946.47 17.8629C2969.07 -5.95297 2991.72 -5.95297 3014.32 17.8629L3116.11 125.121Z" fill="#0c0c0c" fillOpacity="0.4"/>
<path d="M2649.56 3879.42C2653.31 3883.38 2653.31 3887.38 2649.56 3891.33L2632.61 3909.19C2628.86 3913.15 2625.06 3913.15 2621.31 3909.19L2604.36 3891.33C2600.6 3887.38 2600.6 3883.38 2604.36 3879.42L2621.31 3861.56C2625.06 3857.61 2628.86 3857.61 2632.61 3861.56L2649.56 3879.42Z" fill="#0c0c0c" fillOpacity="0.4"/>
<path d="M2660.86 3503.99C2666.51 3509.94 2666.51 3515.9 2660.86 3521.85L2635.41 3548.67C2629.76 3554.62 2624.11 3554.62 2618.46 3548.67L2593.01 3521.85C2587.36 3515.9 2587.36 3509.94 2593.01 3503.99L2618.46 3477.18C2624.11 3471.22 2629.76 3471.22 2635.41 3477.18L2660.86 3503.99Z" fill="#0c0c0c" fillOpacity="0.4"/>
<path d="M2672.17 3128.58C2679.72 3136.54 2679.72 3144.49 2672.17 3152.44L2638.23 3188.21C2630.68 3196.16 2623.13 3196.16 2615.58 3188.21L2581.64 3152.44C2574.09 3144.49 2574.09 3136.54 2581.64 3128.58L2615.58 3092.81C2623.13 3084.86 2630.68 3084.86 2638.23 3092.81L2672.17 3128.58Z" fill="#0c0c0c" fillOpacity="0.4"/>
<path d="M2683.45 2753.12C2692.9 2763.07 2692.9 2772.98 2683.45 2782.94L2641.05 2827.61C2631.61 2837.56 2622.2 2837.56 2612.76 2827.61L2570.36 2782.94C2560.91 2772.98 2560.91 2763.07 2570.36 2753.12L2612.76 2708.45C2622.2 2698.49 2631.61 2698.49 2641.05 2708.45L2683.45 2753.12Z" fill="#0c0c0c" fillOpacity="0.4"/>
<path d="M2694.81 2377.68C2706.11 2389.59 2706.11 2401.5 2694.81 2413.45L2643.91 2467.08C2632.61 2478.98 2621.31 2478.98 2609.97 2467.08L2559.07 2413.45C2547.77 2401.54 2547.77 2389.63 2559.07 2377.68L2609.97 2324.05C2621.27 2312.14 2632.57 2312.14 2643.91 2324.05L2694.81 2377.68Z" fill="#0c0c0c" fillOpacity="0.4"/>
<path d="M2706.11 2002.27C2719.31 2016.18 2719.31 2030.09 2706.11 2044L2646.72 2106.58C2633.52 2120.48 2620.32 2120.48 2607.12 2106.58L2547.73 2044C2534.53 2030.09 2534.53 2016.18 2547.73 2002.27L2607.12 1939.69C2620.32 1925.79 2633.52 1925.79 2646.72 1939.69L2706.11 2002.27Z" fill="#0c0c0c" fillOpacity="0.4"/>
<path d="M2717.41 1626.83C2732.5 1642.73 2732.5 1658.6 2717.41 1674.5L2649.56 1745.99C2634.47 1761.9 2619.41 1761.9 2604.32 1745.99L2536.47 1674.5C2521.37 1658.6 2521.37 1642.73 2536.47 1626.83L2604.32 1555.34C2619.41 1539.43 2634.47 1539.43 2649.56 1555.34L2717.41 1626.83Z" fill="#0c0c0c" fillOpacity="0.4"/>
<path d="M2728.71 1251.37C2745.66 1269.23 2745.66 1287.14 2728.71 1305L2652.37 1385.44C2635.42 1403.31 2618.42 1403.31 2601.47 1385.44L2525.13 1305C2508.18 1287.14 2508.18 1269.23 2525.13 1251.37L2601.47 1170.93C2618.42 1153.07 2635.42 1153.07 2652.37 1170.93L2728.71 1251.37Z" fill="#0c0c0c" fillOpacity="0.4"/>
<path d="M2740.05 875.966C2758.9 895.827 2758.9 915.688 2740.05 935.549L2655.21 1024.95C2636.37 1044.81 2617.52 1044.81 2598.67 1024.95L2513.83 935.549C2494.98 915.688 2494.98 895.827 2513.83 875.966L2598.67 786.57C2617.52 766.708 2636.37 766.708 2655.21 786.57L2740.05 875.966Z" fill="#0c0c0c" fillOpacity="0.4"/>
<path d="M2751.35 500.533C2772.1 522.393 2772.1 544.253 2751.35 566.07L2658.01 664.419C2637.27 686.279 2616.52 686.279 2595.82 664.419L2502.48 566.07C2481.73 544.21 2481.73 522.35 2502.48 500.533L2595.82 402.184C2616.56 380.324 2637.31 380.324 2658.01 402.184L2751.35 500.533Z" fill="#0c0c0c" fillOpacity="0.4"/>
<path d="M2762.65 125.121C2785.25 148.937 2785.25 172.796 2762.65 196.612L2660.86 303.871C2638.26 327.686 2615.61 327.686 2593.01 303.871L2491.22 196.612C2468.62 172.796 2468.62 148.937 2491.22 125.121L2593.01 17.8629C2615.61 -5.95297 2638.26 -5.95297 2660.86 17.8629L2762.65 125.121Z" fill="#0c0c0c" fillOpacity="0.4"/>
<path d="M2296.08 3879.42C2299.84 3883.38 2299.84 3887.38 2296.08 3891.33L2279.13 3909.19C2275.38 3913.15 2271.58 3913.15 2267.83 3909.19L2250.88 3891.33C2247.13 3887.38 2247.13 3883.38 2250.88 3879.42L2267.83 3861.56C2271.58 3857.61 2275.38 3857.61 2279.13 3861.56L2296.08 3879.42Z" fill="#0c0c0c" fillOpacity="0.4"/>
<path d="M2307.39 3503.99C2313.05 3509.94 2313.05 3515.9 2307.39 3521.85L2281.95 3548.67C2276.3 3554.62 2270.65 3554.62 2265 3548.67L2239.55 3521.85C2233.9 3515.9 2233.9 3509.94 2239.55 3503.99L2265 3477.18C2270.65 3471.22 2276.3 3471.22 2281.95 3477.18L2307.39 3503.99Z" fill="#0c0c0c" fillOpacity="0.4"/>
<path d="M2318.7 3128.58C2326.25 3136.54 2326.25 3144.49 2318.7 3152.44L2284.76 3188.21C2277.21 3196.16 2269.66 3196.16 2262.11 3188.21L2228.17 3152.44C2220.62 3144.49 2220.62 3136.54 2228.17 3128.58L2262.11 3092.81C2269.66 3084.86 2277.21 3084.86 2284.76 3092.81L2318.7 3128.58Z" fill="#0c0c0c" fillOpacity="0.4"/>
<path d="M2330 2753.12C2339.44 2763.08 2339.44 2772.98 2330 2782.94L2287.6 2827.61C2278.15 2837.56 2268.75 2837.56 2259.3 2827.61L2216.91 2782.94C2207.46 2772.98 2207.46 2763.08 2216.91 2753.12L2259.3 2708.45C2268.75 2698.49 2278.15 2698.49 2287.6 2708.45L2330 2753.12Z" fill="#0c0c0c" fillOpacity="0.4"/>
<path d="M2341.34 2377.68C2352.64 2389.59 2352.64 2401.5 2341.34 2413.45L2290.44 2467.08C2279.14 2478.98 2267.84 2478.98 2256.5 2467.08L2205.6 2413.45C2194.3 2401.54 2194.3 2389.63 2205.6 2377.68L2256.5 2324.05C2267.8 2312.14 2279.1 2312.14 2290.44 2324.05L2341.34 2377.68Z" fill="#0c0c0c" fillOpacity="0.4"/>
<path d="M2352.64 2002.27C2365.84 2016.18 2365.84 2030.09 2352.64 2044L2293.25 2106.58C2280.05 2120.48 2266.85 2120.48 2253.65 2106.58L2194.26 2044C2181.06 2030.09 2181.06 2016.18 2194.26 2002.27L2253.65 1939.69C2266.85 1925.79 2280.05 1925.79 2293.25 1939.69L2352.64 2002.27Z" fill="#0c0c0c" fillOpacity="0.4"/>
<path d="M2363.93 1626.83C2379.03 1642.73 2379.03 1658.6 2363.93 1674.5L2296.08 1745.99C2280.99 1761.9 2265.94 1761.9 2250.84 1745.99L2182.99 1674.5C2167.9 1658.6 2167.9 1642.73 2182.99 1626.83L2250.84 1555.34C2265.94 1539.43 2280.99 1539.43 2296.08 1555.34L2363.93 1626.83Z" fill="#0c0c0c" fillOpacity="0.4"/>
<path d="M2375.24 1251.37C2392.19 1269.23 2392.19 1287.14 2375.24 1305L2298.9 1385.44C2281.95 1403.31 2264.96 1403.31 2248 1385.44L2171.66 1305C2154.71 1287.14 2154.71 1269.23 2171.66 1251.37L2248 1170.93C2264.96 1153.07 2281.95 1153.07 2298.9 1170.93L2375.24 1251.37Z" fill="#0c0c0c" fillOpacity="0.4"/>
<path d="M2386.54 875.967C2405.39 895.828 2405.39 915.689 2386.54 935.55L2301.7 1024.95C2282.85 1044.81 2264 1044.81 2245.15 1024.95L2160.31 935.55C2141.46 915.689 2141.46 895.828 2160.31 875.967L2245.15 786.57C2264 766.709 2282.85 766.709 2301.7 786.57L2386.54 875.967Z" fill="#0c0c0c" fillOpacity="0.4"/>
<path d="M2397.88 500.533C2418.62 522.394 2418.62 544.254 2397.88 566.07L2304.54 664.42C2283.8 686.28 2263.05 686.28 2242.34 664.42L2149.01 566.07C2128.26 544.21 2128.26 522.35 2149.01 500.533L2242.34 402.184C2263.09 380.324 2283.84 380.324 2304.54 402.184L2397.88 500.533Z" fill="#0c0c0c" fillOpacity="0.4"/>
<path d="M2409.18 125.121C2431.78 148.937 2431.78 172.796 2409.18 196.612L2307.39 303.871C2284.79 327.686 2262.14 327.686 2239.54 303.871L2137.75 196.612C2115.15 172.796 2115.15 148.937 2137.75 125.121L2239.54 17.8629C2262.14 -5.95297 2284.79 -5.95297 2307.39 17.8629L2409.18 125.121Z" fill="#0c0c0c" fillOpacity="0.4"/>
<path d="M1942.63 3879.42C1946.38 3883.38 1946.38 3887.38 1942.63 3891.33L1925.67 3909.19C1921.92 3913.15 1918.13 3913.15 1914.37 3909.19L1897.42 3891.33C1893.67 3887.38 1893.67 3883.38 1897.42 3879.42L1914.37 3861.56C1918.13 3857.61 1921.92 3857.61 1925.67 3861.56L1942.63 3879.42Z" fill="#0c0c0c" fillOpacity="0.4"/>
<path d="M1953.93 3503.99C1959.58 3509.94 1959.58 3515.9 1953.93 3521.85L1928.48 3548.67C1922.83 3554.62 1917.18 3554.62 1911.53 3548.67L1886.08 3521.85C1880.43 3515.9 1880.43 3509.94 1886.08 3503.99L1911.53 3477.18C1917.18 3471.22 1922.83 3471.22 1928.48 3477.18L1953.93 3503.99Z" fill="#0c0c0c" fillOpacity="0.4"/>
<path d="M1965.23 3128.58C1972.78 3136.54 1972.78 3144.49 1965.23 3152.44L1931.29 3188.21C1923.74 3196.16 1916.19 3196.16 1908.64 3188.21L1874.7 3152.44C1867.15 3144.49 1867.15 3136.54 1874.7 3128.58L1908.64 3092.82C1916.19 3084.86 1923.74 3084.86 1931.29 3092.82L1965.23 3128.58Z" fill="#0c0c0c" fillOpacity="0.4"/>
<path d="M1976.53 2753.12C1985.98 2763.08 1985.98 2772.98 1976.53 2782.94L1934.13 2827.61C1924.69 2837.56 1915.29 2837.56 1905.84 2827.61L1863.44 2782.94C1854 2772.98 1854 2763.08 1863.44 2753.12L1905.84 2708.45C1915.29 2698.49 1924.69 2698.49 1934.13 2708.45L1976.53 2753.12Z" fill="#0c0c0c" fillOpacity="0.4"/>
<path d="M1987.83 2377.68C1999.13 2389.59 1999.13 2401.5 1987.83 2413.45L1936.94 2467.08C1925.64 2478.98 1914.33 2478.98 1902.99 2467.08L1852.1 2413.45C1840.8 2401.54 1840.8 2389.63 1852.1 2377.68L1902.99 2324.05C1914.29 2312.14 1925.59 2312.14 1936.94 2324.05L1987.83 2377.68Z" fill="#0c0c0c" fillOpacity="0.4"/>
<path d="M1999.16 2002.27C2012.36 2016.18 2012.36 2030.09 1999.16 2044L1939.77 2106.58C1926.57 2120.48 1913.38 2120.48 1900.18 2106.58L1840.78 2044C1827.59 2030.09 1827.59 2016.18 1840.78 2002.27L1900.18 1939.69C1913.38 1925.78 1926.57 1925.78 1939.77 1939.69L1999.16 2002.27Z" fill="#0c0c0c" fillOpacity="0.4"/>
<path d="M2010.46 1626.83C2025.55 1642.73 2025.55 1658.6 2010.46 1674.5L1942.61 1745.99C1927.51 1761.9 1912.46 1761.9 1897.36 1745.99L1829.52 1674.5C1814.42 1658.6 1814.42 1642.73 1829.52 1626.83L1897.36 1555.34C1912.46 1539.43 1927.51 1539.43 1942.61 1555.34L2010.46 1626.83Z" fill="#0c0c0c" fillOpacity="0.4"/>
<path d="M2021.77 1251.37C2038.72 1269.23 2038.72 1287.14 2021.77 1305L1945.43 1385.44C1928.48 1403.31 1911.48 1403.31 1894.53 1385.44L1818.19 1305C1801.24 1287.14 1801.24 1269.23 1818.19 1251.37L1894.53 1170.93C1911.48 1153.07 1928.48 1153.07 1945.43 1170.93L2021.77 1251.37Z" fill="#0c0c0c" fillOpacity="0.4"/>
<path d="M2033.08 875.966C2051.93 895.827 2051.93 915.688 2033.08 935.549L1948.24 1024.95C1929.39 1044.81 1910.54 1044.81 1891.69 1024.95L1806.85 935.549C1788 915.688 1788 895.827 1806.85 875.966L1891.69 786.569C1910.54 766.708 1929.39 766.708 1948.24 786.569L2033.08 875.966Z" fill="#0c0c0c" fillOpacity="0.4"/>
<path d="M2044.41 500.533C2065.15 522.394 2065.15 544.254 2044.41 566.07L1951.07 664.42C1930.32 686.28 1909.58 686.28 1888.87 664.42L1795.54 566.07C1774.79 544.21 1774.79 522.35 1795.54 500.533L1888.87 402.184C1909.62 380.324 1930.36 380.324 1951.07 402.184L2044.41 500.533Z" fill="#0c0c0c" fillOpacity="0.4"/>
<path d="M2055.72 125.121C2078.32 148.937 2078.32 172.796 2055.72 196.612L1953.93 303.871C1931.33 327.686 1908.68 327.686 1886.08 303.871L1784.29 196.612C1761.69 172.796 1761.69 148.937 1784.29 125.121L1886.08 17.8629C1908.68 -5.95297 1931.33 -5.95297 1953.93 17.8629L2055.72 125.121Z" fill="#0c0c0c" fillOpacity="0.4"/>
<path d="M1589.12 3879.42C1592.88 3883.38 1592.88 3887.38 1589.12 3891.33L1572.17 3909.19C1568.42 3913.15 1564.62 3913.15 1560.87 3909.19L1543.92 3891.33C1540.17 3887.38 1540.17 3883.38 1543.92 3879.42L1560.87 3861.56C1564.62 3857.61 1568.42 3857.61 1572.17 3861.56L1589.12 3879.42Z" fill="#0c0c0c" fillOpacity="0.4"/>
<path d="M1600.45 3503.99C1606.1 3509.94 1606.1 3515.9 1600.45 3521.85L1575 3548.67C1569.35 3554.62 1563.7 3554.62 1558.05 3548.67L1532.6 3521.85C1526.95 3515.9 1526.95 3509.94 1532.6 3503.99L1558.05 3477.18C1563.7 3471.22 1569.35 3471.22 1575 3477.18L1600.45 3503.99Z" fill="#0c0c0c" fillOpacity="0.4"/>
<path d="M1611.76 3128.58C1619.31 3136.54 1619.31 3144.49 1611.76 3152.44L1577.82 3188.21C1570.27 3196.16 1562.72 3196.16 1555.18 3188.21L1521.23 3152.44C1513.69 3144.49 1513.69 3136.54 1521.23 3128.58L1555.18 3092.81C1562.72 3084.86 1570.27 3084.86 1577.82 3092.81L1611.76 3128.58Z" fill="#0c0c0c" fillOpacity="0.4"/>
<path d="M1623.05 2753.12C1632.49 2763.07 1632.49 2772.98 1623.05 2782.94L1580.65 2827.61C1571.2 2837.56 1561.8 2837.56 1552.36 2827.61L1509.96 2782.94C1500.51 2772.98 1500.51 2763.07 1509.96 2753.12L1552.36 2708.45C1561.8 2698.49 1571.2 2698.49 1580.65 2708.45L1623.05 2753.12Z" fill="#0c0c0c" fillOpacity="0.4"/>
<path d="M1634.37 2377.68C1645.67 2389.59 1645.67 2401.5 1634.37 2413.45L1583.47 2467.08C1572.17 2478.98 1560.87 2478.98 1549.53 2467.08L1498.63 2413.45C1487.33 2401.54 1487.33 2389.63 1498.63 2377.68L1549.53 2324.05C1560.83 2312.14 1572.13 2312.14 1583.47 2324.05L1634.37 2377.68Z" fill="#0c0c0c" fillOpacity="0.4"/>
<path d="M1645.7 2002.27C1658.9 2016.18 1658.9 2030.09 1645.7 2044L1586.31 2106.58C1573.11 2120.48 1559.91 2120.48 1546.71 2106.58L1487.32 2044C1474.12 2030.09 1474.12 2016.18 1487.32 2002.27L1546.71 1939.69C1559.91 1925.78 1573.11 1925.78 1586.31 1939.69L1645.7 2002.27Z" fill="#0c0c0c" fillOpacity="0.4"/>
<path d="M1657.01 1626.83C1672.1 1642.73 1672.1 1658.6 1657.01 1674.5L1589.16 1745.99C1574.06 1761.9 1559.01 1761.9 1543.91 1745.99L1476.07 1674.5C1460.97 1658.6 1460.97 1642.73 1476.07 1626.83L1543.91 1555.34C1559.01 1539.43 1574.06 1539.43 1589.16 1555.34L1657.01 1626.83Z" fill="#0c0c0c" fillOpacity="0.4"/>
<path d="M1668.31 1251.37C1685.26 1269.23 1685.26 1287.14 1668.31 1305L1591.97 1385.44C1575.01 1403.31 1558.02 1403.31 1541.07 1385.44L1464.73 1305C1447.77 1287.14 1447.77 1269.23 1464.73 1251.37L1541.07 1170.93C1558.02 1153.07 1575.01 1153.07 1591.97 1170.93L1668.31 1251.37Z" fill="#0c0c0c" fillOpacity="0.4"/>
<path d="M1679.61 875.966C1698.46 895.827 1698.46 915.688 1679.61 935.549L1594.77 1024.95C1575.92 1044.81 1557.08 1044.81 1538.23 1024.95L1453.39 935.549C1434.54 915.688 1434.54 895.827 1453.39 875.966L1538.23 786.569C1557.08 766.708 1575.92 766.708 1594.77 786.569L1679.61 875.966Z" fill="#0c0c0c" fillOpacity="0.4"/>
<path d="M1690.94 500.533C1711.69 522.393 1711.69 544.253 1690.94 566.07L1597.61 664.419C1576.86 686.279 1556.12 686.279 1535.41 664.419L1442.07 566.07C1421.33 544.21 1421.33 522.35 1442.07 500.533L1535.41 402.184C1556.16 380.324 1576.9 380.324 1597.61 402.184L1690.94 500.533Z" fill="#0c0c0c" fillOpacity="0.4"/>
<path d="M1702.25 125.121C1724.85 148.937 1724.85 172.796 1702.25 196.612L1600.46 303.87C1577.86 327.686 1555.21 327.686 1532.61 303.87L1430.82 196.612C1408.22 172.796 1408.22 148.937 1430.82 125.121L1532.61 17.8624C1555.21 -5.95346 1577.86 -5.95346 1600.46 17.8624L1702.25 125.121Z" fill="#0c0c0c" fillOpacity="0.4"/>
<path d="M1235.65 3879.42C1239.4 3883.38 1239.4 3887.38 1235.65 3891.33L1218.7 3909.19C1214.94 3913.15 1211.15 3913.15 1207.4 3909.19L1190.45 3891.33C1186.69 3887.38 1186.69 3883.38 1190.45 3879.42L1207.4 3861.56C1211.15 3857.61 1214.94 3857.61 1218.7 3861.56L1235.65 3879.42Z" fill="#0c0c0c" fillOpacity="0.4"/>
<path d="M1246.99 3503.99C1252.64 3509.94 1252.64 3515.9 1246.99 3521.85L1221.54 3548.67C1215.89 3554.62 1210.24 3554.62 1204.59 3548.67L1179.14 3521.85C1173.49 3515.9 1173.49 3509.94 1179.14 3503.99L1204.59 3477.18C1210.24 3471.22 1215.89 3471.22 1221.54 3477.18L1246.99 3503.99Z" fill="#0c0c0c" fillOpacity="0.4"/>
<path d="M1258.29 3128.58C1265.84 3136.53 1265.84 3144.49 1258.29 3152.44L1224.35 3188.21C1216.8 3196.16 1209.25 3196.16 1201.7 3188.21L1167.76 3152.44C1160.21 3144.49 1160.21 3136.53 1167.76 3128.58L1201.7 3092.81C1209.25 3084.86 1216.8 3084.86 1224.35 3092.81L1258.29 3128.58Z" fill="#0c0c0c" fillOpacity="0.4"/>
<path d="M1269.59 2753.12C1279.04 2763.08 1279.04 2772.98 1269.59 2782.94L1227.19 2827.61C1217.75 2837.56 1208.34 2837.56 1198.9 2827.61L1156.5 2782.94C1147.05 2772.98 1147.05 2763.08 1156.5 2753.12L1198.9 2708.45C1208.34 2698.49 1217.75 2698.49 1227.19 2708.45L1269.59 2753.12Z" fill="#0c0c0c" fillOpacity="0.4"/>
<path d="M1280.9 2377.68C1292.2 2389.59 1292.2 2401.5 1280.9 2413.45L1230.01 2467.08C1218.71 2478.98 1207.41 2478.98 1196.06 2467.08L1145.17 2413.45C1133.87 2401.54 1133.87 2389.63 1145.17 2377.68L1196.06 2324.05C1207.36 2312.14 1218.67 2312.14 1230.01 2324.05L1280.9 2377.68Z" fill="#0c0c0c" fillOpacity="0.4"/>
<path d="M1292.23 2002.27C1305.43 2016.18 1305.43 2030.09 1292.23 2044L1232.84 2106.58C1219.64 2120.48 1206.45 2120.48 1193.25 2106.58L1133.85 2044C1120.66 2030.09 1120.66 2016.18 1133.85 2002.27L1193.25 1939.69C1206.45 1925.79 1219.64 1925.79 1232.84 1939.69L1292.23 2002.27Z" fill="#0c0c0c" fillOpacity="0.4"/>
<path d="M1303.53 1626.83C1318.62 1642.73 1318.62 1658.6 1303.53 1674.5L1235.68 1745.99C1220.58 1761.9 1205.53 1761.9 1190.43 1745.99L1122.59 1674.5C1107.49 1658.6 1107.49 1642.73 1122.59 1626.83L1190.43 1555.34C1205.53 1539.43 1220.58 1539.43 1235.68 1555.34L1303.53 1626.83Z" fill="#0c0c0c" fillOpacity="0.4"/>
<path d="M1314.84 1251.37C1331.79 1269.23 1331.79 1287.14 1314.84 1305L1238.49 1385.44C1221.54 1403.31 1204.55 1403.31 1187.6 1385.44L1111.25 1305C1094.3 1287.14 1094.3 1269.23 1111.25 1251.37L1187.6 1170.93C1204.55 1153.07 1221.54 1153.07 1238.49 1170.93L1314.84 1251.37Z" fill="#0c0c0c" fillOpacity="0.4"/>
<path d="M1326.14 875.967C1344.99 895.828 1344.99 915.689 1326.14 935.55L1241.3 1024.95C1222.46 1044.81 1203.61 1044.81 1184.76 1024.95L1099.92 935.55C1081.07 915.689 1081.07 895.828 1099.92 875.967L1184.76 786.57C1203.61 766.709 1222.46 766.709 1241.3 786.57L1326.14 875.967Z" fill="#0c0c0c" fillOpacity="0.4"/>
<path d="M1337.49 500.533C1358.24 522.393 1358.24 544.253 1337.49 566.07L1244.15 664.419C1223.41 686.279 1202.66 686.279 1181.96 664.419L1088.62 566.07C1067.88 544.21 1067.88 522.35 1088.62 500.533L1181.96 402.184C1202.7 380.324 1223.45 380.324 1244.15 402.184L1337.49 500.533Z" fill="#0c0c0c" fillOpacity="0.4"/>
<path d="M1348.79 125.121C1371.39 148.937 1371.39 172.796 1348.79 196.612L1247 303.87C1224.4 327.686 1201.75 327.686 1179.15 303.87L1077.36 196.612C1054.76 172.796 1054.76 148.937 1077.36 125.121L1179.15 17.8624C1201.75 -5.95346 1224.4 -5.95346 1247 17.8624L1348.79 125.121Z" fill="#0c0c0c" fillOpacity="0.4"/>
<path d="M882.185 3879.42C885.938 3883.38 885.938 3887.38 882.185 3891.33L865.234 3909.19C861.48 3913.15 857.686 3913.15 853.933 3909.19L836.981 3891.33C833.228 3887.38 833.228 3883.38 836.981 3879.42L853.933 3861.56C857.686 3857.61 861.48 3857.61 865.234 3861.56L882.185 3879.42Z" fill="#0c0c0c" fillOpacity="0.4"/>
<path d="M893.481 3503.99C899.131 3509.94 899.131 3515.9 893.481 3521.85L868.033 3548.67C862.382 3554.62 856.732 3554.62 851.082 3548.67L825.633 3521.85C819.983 3515.9 819.983 3509.94 825.633 3503.99L851.082 3477.18C856.732 3471.22 862.382 3471.22 868.033 3477.18L893.481 3503.99Z" fill="#0c0c0c" fillOpacity="0.4"/>
<path d="M904.824 3128.58C912.371 3136.53 912.371 3144.49 904.824 3152.44L870.879 3188.21C863.332 3196.16 855.784 3196.16 848.236 3188.21L814.292 3152.44C806.744 3144.49 806.744 3136.53 814.292 3128.58L848.236 3092.81C855.784 3084.86 863.332 3084.86 870.879 3092.81L904.824 3128.58Z" fill="#0c0c0c" fillOpacity="0.4"/>
<path d="M916.115 2753.12C925.56 2763.07 925.56 2772.98 916.115 2782.94L873.716 2827.61C864.271 2837.56 854.867 2837.56 845.422 2827.61L803.023 2782.94C793.578 2772.98 793.578 2763.07 803.023 2753.12L845.422 2708.45C854.867 2698.49 864.271 2698.49 873.716 2708.45L916.115 2753.12Z" fill="#0c0c0c" fillOpacity="0.4"/>
<path d="M927.43 2377.68C938.732 2389.59 938.732 2401.5 927.43 2413.45L876.535 2467.08C865.234 2478.98 853.933 2478.98 842.591 2467.08L791.695 2413.45C780.394 2401.54 780.394 2389.63 791.695 2377.68L842.591 2324.05C853.892 2312.14 865.193 2312.14 876.535 2324.05L927.43 2377.68Z" fill="#0c0c0c" fillOpacity="0.4"/>
<path d="M938.773 2002.27C951.971 2016.18 951.971 2030.09 938.773 2044L879.381 2106.58C866.183 2120.48 852.984 2120.48 839.786 2106.58L780.394 2044C767.196 2030.09 767.196 2016.18 780.394 2002.27L839.786 1939.69C852.984 1925.79 866.183 1925.79 879.381 1939.69L938.773 2002.27Z" fill="#0c0c0c" fillOpacity="0.4"/>
<path d="M950.069 1626.83C965.165 1642.73 965.165 1658.6 950.069 1674.5L882.222 1745.99C867.126 1761.9 852.072 1761.9 836.976 1745.99L769.129 1674.5C754.033 1658.6 754.033 1642.73 769.129 1626.83L836.976 1555.34C852.072 1539.43 867.126 1539.43 882.222 1555.34L950.069 1626.83Z" fill="#0c0c0c" fillOpacity="0.4"/>
<path d="M961.384 1251.37C978.336 1269.23 978.336 1287.14 961.384 1305L885.04 1385.44C868.089 1403.31 851.096 1403.31 834.144 1385.44L757.8 1305C740.849 1287.14 740.849 1269.23 757.8 1251.37L834.144 1170.93C851.096 1153.07 868.089 1153.07 885.04 1170.93L961.384 1251.37Z" fill="#0c0c0c" fillOpacity="0.4"/>
<path d="M972.668 875.967C991.517 895.828 991.517 915.689 972.668 935.55L887.828 1024.95C868.979 1044.81 850.13 1044.81 831.281 1024.95L746.441 935.55C727.592 915.689 727.592 895.828 746.441 875.967L831.281 786.57C850.13 766.709 868.979 766.709 887.828 786.57L972.668 875.967Z" fill="#0c0c0c" fillOpacity="0.4"/>
<path d="M983.98 500.533C1004.73 522.393 1004.73 544.253 983.98 566.07L890.643 664.419C869.897 686.279 849.151 686.279 828.446 664.419L735.109 566.07C714.363 544.21 714.363 522.35 735.109 500.533L828.446 402.184C849.192 380.324 869.938 380.324 890.643 402.184L983.98 500.533Z" fill="#0c0c0c" fillOpacity="0.4"/>
<path d="M995.326 125.121C1017.93 148.937 1017.93 172.796 995.326 196.612L893.534 303.871C870.932 327.686 848.289 327.686 825.687 303.871L723.895 196.612C701.293 172.796 701.293 148.937 723.895 125.121L825.687 17.8629C848.289 -5.95297 870.932 -5.95297 893.534 17.8629L995.326 125.121Z" fill="#0c0c0c" fillOpacity="0.4"/>
<path d="M528.716 3879.42C532.47 3883.38 532.47 3887.38 528.716 3891.33L511.765 3909.19C508.012 3913.15 504.217 3913.15 500.464 3909.19L483.512 3891.33C479.759 3887.38 479.759 3883.38 483.512 3879.42L500.464 3861.56C504.217 3857.61 508.012 3857.61 511.765 3861.56L528.716 3879.42Z" fill="#0c0c0c" fillOpacity="0.4"/>
<path d="M540.024 3503.99C545.674 3509.94 545.674 3515.9 540.024 3521.85L514.576 3548.67C508.925 3554.62 503.275 3554.62 497.625 3548.67L472.176 3521.85C466.526 3515.9 466.526 3509.94 472.176 3503.99L497.625 3477.18C503.275 3471.22 508.925 3471.22 514.576 3477.18L540.024 3503.99Z" fill="#0c0c0c" fillOpacity="0.4"/>
<path d="M551.37 3128.58C558.918 3136.54 558.918 3144.49 551.37 3152.44L517.426 3188.21C509.878 3196.16 502.331 3196.16 494.783 3188.21L460.838 3152.44C453.291 3144.49 453.291 3136.54 460.838 3128.58L494.783 3092.82C502.331 3084.86 509.878 3084.86 517.426 3092.82L551.37 3128.58Z" fill="#0c0c0c" fillOpacity="0.4"/>
<path d="M562.662 2753.12C572.107 2763.08 572.107 2772.98 562.662 2782.94L520.263 2827.61C510.818 2837.56 501.414 2837.56 491.969 2827.61L449.57 2782.94C440.125 2772.98 440.125 2763.08 449.57 2753.12L491.969 2708.45C501.414 2698.49 510.818 2698.49 520.263 2708.45L562.662 2753.12Z" fill="#0c0c0c" fillOpacity="0.4"/>
<path d="M573.966 2377.68C585.267 2389.59 585.267 2401.5 573.966 2413.45L523.07 2467.08C511.769 2478.98 500.468 2478.98 489.125 2467.08L438.229 2413.45C426.928 2401.54 426.928 2389.63 438.229 2377.68L489.125 2324.05C500.426 2312.14 511.727 2312.14 523.07 2324.05L573.966 2377.68Z" fill="#0c0c0c" fillOpacity="0.4"/>
<path d="M585.265 2002.27C598.464 2016.18 598.464 2030.09 585.265 2044L525.873 2106.58C512.675 2120.48 499.477 2120.48 486.278 2106.58L426.886 2044C413.688 2030.09 413.688 2016.18 426.886 2002.27L486.278 1939.69C499.477 1925.79 512.675 1925.79 525.873 1939.69L585.265 2002.27Z" fill="#0c0c0c" fillOpacity="0.4"/>
<path d="M596.6 1626.83C611.696 1642.73 611.696 1658.6 596.6 1674.5L528.753 1745.99C513.657 1761.9 498.603 1761.9 483.507 1745.99L415.66 1674.5C400.565 1658.6 400.565 1642.73 415.66 1626.83L483.507 1555.34C498.603 1539.43 513.657 1539.43 528.753 1555.34L596.6 1626.83Z" fill="#0c0c0c" fillOpacity="0.4"/>
<path d="M607.915 1251.37C624.867 1269.23 624.867 1287.14 607.915 1305L531.571 1385.44C514.62 1403.31 497.627 1403.31 480.676 1385.44L404.332 1305C387.38 1287.14 387.38 1269.23 404.332 1251.37L480.676 1170.93C497.627 1153.07 514.62 1153.07 531.571 1170.93L607.915 1251.37Z" fill="#0c0c0c" fillOpacity="0.4"/>
<path d="M619.211 875.967C638.06 895.828 638.06 915.689 619.211 935.55L534.371 1024.95C515.522 1044.81 496.673 1044.81 477.825 1024.95L392.984 935.55C374.136 915.689 374.136 895.828 392.984 875.967L477.825 786.57C496.673 766.709 515.522 766.709 534.371 786.57L619.211 875.967Z" fill="#0c0c0c" fillOpacity="0.4"/>
<path d="M630.511 500.533C651.257 522.393 651.257 544.253 630.511 566.07L537.174 664.419C516.428 686.279 495.682 686.279 474.978 664.419L381.641 566.07C360.895 544.21 360.895 522.35 381.641 500.533L474.978 402.184C495.724 380.324 516.469 380.324 537.174 402.184L630.511 500.533Z" fill="#0c0c0c" fillOpacity="0.4"/>
<path d="M641.853 125.121C664.455 148.937 664.455 172.796 641.853 196.612L540.061 303.871C517.459 327.686 494.816 327.686 472.214 303.871L370.422 196.612C347.82 172.796 347.82 148.937 370.422 125.121L472.214 17.8629C494.816 -5.95297 517.459 -5.95297 540.061 17.8629L641.853 125.121Z" fill="#0c0c0c" fillOpacity="0.4"/>
<path d="M175.251 3879.42C179.005 3883.38 179.005 3887.38 175.251 3891.33L158.3 3909.19C154.547 3913.15 150.752 3913.15 146.999 3909.19L130.048 3891.33C126.294 3887.38 126.294 3883.38 130.048 3879.42L146.999 3861.56C150.752 3857.61 154.547 3857.61 158.3 3861.56L175.251 3879.42Z" fill="#0c0c0c" fillOpacity="0.4"/>
<path d="M186.551 3503.99C192.202 3509.94 192.202 3515.9 186.551 3521.85L161.103 3548.67C155.453 3554.62 149.802 3554.62 144.152 3548.67L118.704 3521.85C113.053 3515.9 113.053 3509.94 118.704 3503.99L144.152 3477.18C149.802 3471.22 155.453 3471.22 161.103 3477.18L186.551 3503.99Z" fill="#0c0c0c" fillOpacity="0.4"/>
<path d="M197.898 3128.58C205.446 3136.54 205.446 3144.49 197.898 3152.44L163.954 3188.21C156.406 3196.16 148.858 3196.16 141.31 3188.21L107.366 3152.44C99.8183 3144.49 99.8183 3136.54 107.366 3128.58L141.31 3092.82C148.858 3084.86 156.406 3084.86 163.954 3092.82L197.898 3128.58Z" fill="#0c0c0c" fillOpacity="0.4"/>
<path d="M209.194 2753.12C218.639 2763.07 218.639 2772.98 209.194 2782.94L166.794 2827.61C157.349 2837.56 147.945 2837.56 138.5 2827.61L96.1007 2782.94C86.6557 2772.98 86.6557 2763.07 96.1007 2753.12L138.5 2708.45C147.945 2698.49 157.349 2698.49 166.794 2708.45L209.194 2753.12Z" fill="#0c0c0c" fillOpacity="0.4"/>
<path d="M220.497 2377.68C231.798 2389.59 231.798 2401.5 220.497 2413.45L169.601 2467.08C158.3 2478.98 146.999 2478.98 135.657 2467.08L84.7607 2413.45C73.4597 2401.54 73.4597 2389.63 84.7607 2377.68L135.657 2324.05C146.958 2312.14 158.259 2312.14 169.601 2324.05L220.497 2377.68Z" fill="#0c0c0c" fillOpacity="0.4"/>
<path d="M231.801 2002.27C244.999 2016.18 244.999 2030.09 231.801 2044L172.408 2106.58C159.21 2120.48 146.012 2120.48 132.813 2106.58L73.4211 2044C60.2228 2030.09 60.2228 2016.18 73.4211 2002.27L132.813 1939.69C146.012 1925.79 159.21 1925.79 172.408 1939.69L231.801 2002.27Z" fill="#0c0c0c" fillOpacity="0.4"/>
<path d="M243.139 1626.83C258.235 1642.73 258.235 1658.6 243.139 1674.5L175.292 1745.99C160.196 1761.9 145.142 1761.9 130.047 1745.99L62.1992 1674.5C47.1037 1658.6 47.1037 1642.73 62.1992 1626.83L130.047 1555.34C145.142 1539.43 160.196 1539.43 175.292 1555.34L243.139 1626.83Z" fill="#0c0c0c" fillOpacity="0.4"/>
<path d="M254.443 1251.37C271.394 1269.23 271.394 1287.14 254.443 1305L178.099 1385.44C161.147 1403.31 144.155 1403.31 127.203 1385.44L50.8593 1305C33.9077 1287.14 33.9077 1269.23 50.8593 1251.37L127.203 1170.93C144.155 1153.07 161.147 1153.07 178.099 1170.93L254.443 1251.37Z" fill="#0c0c0c" fillOpacity="0.4"/>
<path d="M265.75 875.966C284.599 895.827 284.599 915.688 265.75 935.549L180.91 1024.95C162.061 1044.81 143.213 1044.81 124.364 1024.95L39.5236 935.549C20.6748 915.688 20.6748 895.827 39.5236 875.966L124.364 786.57C143.213 766.708 162.061 766.708 180.91 786.57L265.75 875.966Z" fill="#0c0c0c" fillOpacity="0.4"/>
<path d="M277.042 500.533C297.788 522.393 297.788 544.253 277.042 566.07L183.706 664.419C162.96 686.279 142.214 686.279 121.509 664.419L28.1722 566.07C7.42615 544.21 7.42615 522.35 28.1722 500.533L121.509 402.184C142.255 380.324 163.001 380.324 183.706 402.184L277.042 500.533Z" fill="#0c0c0c" fillOpacity="0.4"/>
<path d="M288.377 125.121C310.979 148.937 310.979 172.796 288.377 196.612L186.585 303.871C163.983 327.686 141.34 327.686 118.738 303.871L16.9458 196.612C-5.65619 172.796 -5.65619 148.937 16.9458 125.121L118.738 17.8629C141.34 -5.95297 163.983 -5.95297 186.585 17.8629L288.377 125.121Z" fill="#0c0c0c" fillOpacity="0.4"/>
</g>
</svg>
