<svg width="191" height="55" viewBox="0 0 191 55" fill="none" xmlns="http://www.w3.org/2000/svg">
<path d="M189.94 48.6567C189.94 51.5877 187.509 53.9619 184.501 53.9619H6.50858C3.50253 53.9619 1.0625 51.5877 1.0625 48.6567V6.34948C1.0625 3.41984 3.50253 1.03735 6.50858 1.03735H184.5C187.509 1.03735 189.939 3.41984 189.939 6.34948L189.94 48.6567Z" fill="black"/>
<path d="M183.926 1.10148C187.201 1.10148 189.866 3.69163 189.866 6.87476V48.1248C189.866 51.3079 187.201 53.898 183.926 53.898H7.07407C3.79878 53.898 1.13362 51.3079 1.13362 48.1248V6.87476C1.13362 3.69163 3.79878 1.10148 7.07407 1.10148H183.926ZM183.926 -0.000240326H7.07407C3.1851 -0.000240326 0 3.09523 0 6.87476V48.1248C0 51.9043 3.1851 54.9998 7.07407 54.9998H183.926C187.815 54.9998 191 51.9043 191 48.1248V6.87476C191 3.09523 187.815 -0.000240326 183.926 -0.000240326Z" fill="#A6A6A6"/>
<path d="M42.625 27.2025C42.584 22.7708 46.3587 20.6148 46.5313 20.5145C44.3935 17.4853 41.08 17.0715 39.9157 17.0385C37.1327 16.7539 34.4332 18.6569 33.0156 18.6569C31.5697 18.6569 29.3866 17.066 27.0338 17.1127C24.0061 17.1581 21.1736 18.8617 19.6201 21.5072C16.4142 26.9013 18.8052 34.8282 21.8768 39.1883C23.4133 41.3237 25.2087 43.708 27.5587 43.6241C29.8577 43.532 30.7165 42.1996 33.491 42.1996C36.24 42.1996 37.0464 43.6241 39.4431 43.5705C41.9105 43.532 43.464 41.4255 44.9467 39.2708C46.7223 36.8233 47.4354 34.413 47.4637 34.2892C47.4057 34.27 42.6717 32.5141 42.625 27.2025Z" fill="white"/>
<path d="M38.0976 14.1702C39.3342 12.6674 40.1802 10.6227 39.9454 8.54785C38.1556 8.62485 35.9174 9.75098 34.6285 11.2209C33.4881 12.5161 32.4695 14.6391 32.7326 16.6356C34.7431 16.7814 36.8073 15.6497 38.0976 14.1702Z" fill="white"/>
<path d="M69.3962 13.7622C69.3962 15.3806 68.8968 16.5988 67.8993 17.417C66.9754 18.1718 65.6625 18.55 63.9619 18.55C63.1187 18.55 62.3971 18.5142 61.793 18.4427V9.60009C62.581 9.47634 63.4299 9.41309 64.3467 9.41309C65.9667 9.41309 67.1877 9.75546 68.0111 10.4402C68.9335 11.2143 69.3962 12.3212 69.3962 13.7622ZM67.8328 13.8021C67.8328 12.753 67.547 11.9486 66.9754 11.3876C66.4039 10.828 65.5691 10.5475 64.4698 10.5475C64.0029 10.5475 63.6053 10.5777 63.2757 10.641V17.3633C63.4582 17.3908 63.7921 17.4032 64.2774 17.4032C65.4121 17.4032 66.2878 17.0966 66.9047 16.4833C67.5216 15.8701 67.8328 14.9763 67.8328 13.8021Z" fill="white"/>
<path d="M77.6845 15.1759C77.6845 16.1728 77.3917 16.9896 76.8059 17.6303C76.1919 18.2889 75.3784 18.6176 74.3626 18.6176C73.3835 18.6176 72.6039 18.3027 72.0225 17.6702C71.4424 17.0391 71.1523 16.2429 71.1523 15.2832C71.1523 14.2794 71.4509 13.4558 72.0507 12.8164C72.6506 12.1771 73.4571 11.8567 74.4729 11.8567C75.452 11.8567 76.2386 12.1716 76.8342 12.8027C77.4002 13.4159 77.6845 14.2079 77.6845 15.1759ZM76.1466 15.2227C76.1466 14.6246 76.0137 14.1117 75.7491 13.6841C75.4378 13.1671 74.995 12.9086 74.4192 12.9086C73.8235 12.9086 73.3708 13.1671 73.0595 13.6841C72.7935 14.1117 72.662 14.6328 72.662 15.2488C72.662 15.8469 72.7949 16.3598 73.0595 16.7874C73.3807 17.3044 73.8278 17.5629 74.405 17.5629C74.9709 17.5629 75.4152 17.3003 75.7349 16.7737C76.0094 16.3378 76.1466 15.8208 76.1466 15.2227Z" fill="white"/>
<path d="M88.7999 11.9888L86.713 18.4705H85.3548L84.4904 15.6559C84.2711 14.9533 84.0928 14.2548 83.9542 13.5618H83.9273C83.7985 14.274 83.6203 14.9711 83.3911 15.6559L82.4728 18.4705H81.0991L79.1367 11.9888H80.6605L81.4146 15.0701C81.5971 15.7989 81.7471 16.4933 81.8673 17.1505H81.8942C82.0045 16.6088 82.1871 15.9185 82.4445 15.0839L83.3911 11.9901H84.5993L85.5062 15.0179C85.7255 15.7563 85.9038 16.4671 86.041 17.1519H86.082C86.1825 16.485 86.3339 15.7741 86.5348 15.0179L87.3441 11.9901H88.7999V11.9888Z" fill="white"/>
<path d="M96.4866 18.4702H95.0039V14.7577C95.0039 13.6137 94.5568 13.0417 93.6598 13.0417C93.2198 13.0417 92.8647 13.1984 92.5888 13.5133C92.3158 13.8282 92.1771 14.1994 92.1771 14.6243V18.4688H90.6944V13.8405C90.6944 13.2713 90.676 12.6539 90.6406 11.9857H91.9437L92.013 12.999H92.054C92.2266 12.6842 92.4841 12.4243 92.8223 12.2167C93.2241 11.9747 93.674 11.8523 94.1663 11.8523C94.7889 11.8523 95.3067 12.0475 95.7184 12.4394C96.2305 12.9193 96.4866 13.6357 96.4866 14.5872V18.4702V18.4702Z" fill="white"/>
<path d="M100.575 18.4703H99.0938V9.0144H100.575V18.4703Z" fill="white"/>
<path d="M109.306 15.1759C109.306 16.1728 109.013 16.9896 108.427 17.6303C107.813 18.2889 106.998 18.6176 105.984 18.6176C105.003 18.6176 104.224 18.3027 103.644 17.6702C103.063 17.0391 102.773 16.2429 102.773 15.2832C102.773 14.2794 103.072 13.4558 103.672 12.8164C104.272 12.1771 105.078 11.8567 106.093 11.8567C107.073 11.8567 107.858 12.1716 108.455 12.8027C109.021 13.4159 109.306 14.2079 109.306 15.1759ZM107.766 15.2227C107.766 14.6246 107.633 14.1117 107.369 13.6841C107.059 13.1671 106.615 12.9086 106.04 12.9086C105.443 12.9086 104.99 13.1671 104.681 13.6841C104.415 14.1117 104.283 14.6328 104.283 15.2488C104.283 15.8469 104.416 16.3598 104.681 16.7874C105.002 17.3044 105.449 17.5629 106.026 17.5629C106.592 17.5629 107.035 17.3003 107.355 16.7737C107.63 16.3378 107.766 15.8208 107.766 15.2227Z" fill="white"/>
<path d="M116.483 18.4704H115.152L115.041 17.7238H115C114.545 18.3192 113.895 18.6176 113.052 18.6176C112.423 18.6176 111.913 18.4209 111.53 18.0304C111.182 17.6757 111.008 17.2343 111.008 16.7104C111.008 15.9184 111.347 15.3148 112.031 14.8968C112.713 14.4788 113.672 14.2739 114.907 14.2836V14.1626C114.907 13.3087 114.446 12.8824 113.522 12.8824C112.864 12.8824 112.284 13.0433 111.783 13.3623L111.482 12.4163C112.101 12.0437 112.867 11.8567 113.77 11.8567C115.513 11.8567 116.387 12.7504 116.387 14.5379V16.9249C116.387 17.5726 116.419 18.0882 116.483 18.4704ZM114.944 16.2429V15.2433C113.308 15.2158 112.491 15.6517 112.491 16.5496C112.491 16.8878 112.584 17.1408 112.775 17.3099C112.966 17.4791 113.209 17.5629 113.499 17.5629C113.825 17.5629 114.129 17.4626 114.406 17.2632C114.685 17.0624 114.856 16.8081 114.92 16.4959C114.935 16.4258 114.944 16.3406 114.944 16.2429Z" fill="white"/>
<path d="M124.906 18.4703H123.59L123.521 17.4294H123.48C123.059 18.2214 122.343 18.6174 121.338 18.6174C120.534 18.6174 119.865 18.3108 119.334 17.6975C118.804 17.0843 118.539 16.2882 118.539 15.3105C118.539 14.2614 118.826 13.4117 119.404 12.7627C119.962 12.1577 120.647 11.8552 121.462 11.8552C122.358 11.8552 122.984 12.148 123.341 12.7352H123.369V9.0144H124.853V16.724C124.853 17.3552 124.87 17.9368 124.906 18.4703ZM123.369 15.7368V14.656C123.369 14.469 123.355 14.3178 123.328 14.2023C123.245 13.8558 123.065 13.5643 122.792 13.3292C122.516 13.094 122.184 12.9758 121.8 12.9758C121.247 12.9758 120.814 13.1889 120.496 13.6165C120.18 14.0442 120.02 14.59 120.02 15.2569C120.02 15.8977 120.172 16.4174 120.476 16.8175C120.797 17.2438 121.23 17.4569 121.772 17.4569C122.259 17.4569 122.648 17.2795 122.943 16.9234C123.229 16.5948 123.369 16.1988 123.369 15.7368Z" fill="white"/>
<path d="M137.587 15.1759C137.587 16.1728 137.294 16.9896 136.708 17.6303C136.094 18.2889 135.282 18.6176 134.265 18.6176C133.287 18.6176 132.508 18.3027 131.925 17.6702C131.345 17.0391 131.055 16.2429 131.055 15.2832C131.055 14.2794 131.353 13.4558 131.953 12.8164C132.553 12.1771 133.359 11.8567 134.377 11.8567C135.354 11.8567 136.142 12.1716 136.737 12.8027C137.303 13.4159 137.587 14.2079 137.587 15.1759ZM136.05 15.2227C136.05 14.6246 135.917 14.1117 135.653 13.6841C135.34 13.1671 134.899 12.9086 134.321 12.9086C133.727 12.9086 133.275 13.1671 132.962 13.6841C132.696 14.1117 132.564 14.6328 132.564 15.2488C132.564 15.8469 132.697 16.3598 132.962 16.7874C133.283 17.3044 133.73 17.5629 134.307 17.5629C134.873 17.5629 135.319 17.3003 135.639 16.7737C135.912 16.3378 136.05 15.8208 136.05 15.2227Z" fill="white"/>
<path d="M145.559 18.4702H144.078V14.7577C144.078 13.6137 143.631 13.0417 142.733 13.0417C142.293 13.0417 141.938 13.1984 141.663 13.5133C141.389 13.8282 141.251 14.1994 141.251 14.6243V18.4688H139.767V13.8405C139.767 13.2713 139.75 12.6539 139.715 11.9857H141.016L141.086 12.999H141.127C141.301 12.6842 141.558 12.4243 141.895 12.2167C142.298 11.9747 142.747 11.8523 143.241 11.8523C143.862 11.8523 144.379 12.0475 144.791 12.4394C145.305 12.9193 145.559 13.6357 145.559 14.5872V18.4702V18.4702Z" fill="white"/>
<path d="M155.538 13.0679H153.906V16.2166C153.906 17.0169 154.196 17.417 154.77 17.417C155.036 17.417 155.257 17.395 155.431 17.3496L155.469 18.4428C155.176 18.55 154.791 18.6036 154.318 18.6036C153.732 18.6036 153.276 18.4304 152.947 18.0839C152.615 17.7374 152.451 17.1544 152.451 16.3363V13.0679H151.477V11.9885H152.451V10.8005L153.904 10.3743V11.9871H155.537V13.0679H155.538Z" fill="white"/>
<path d="M163.39 18.4703H161.906V14.7853C161.906 13.6234 161.459 13.0418 160.563 13.0418C159.876 13.0418 159.406 13.3787 159.148 14.0524C159.104 14.194 159.079 14.3673 159.079 14.5708V18.4689H157.598V9.0144H159.079V12.9208H159.107C159.574 12.2099 160.243 11.8552 161.111 11.8552C161.725 11.8552 162.233 12.0504 162.636 12.4423C163.138 12.9304 163.39 13.6564 163.39 14.6162V18.4703V18.4703Z" fill="white"/>
<path d="M171.484 14.9229C171.484 15.1814 171.464 15.3986 171.429 15.576H166.982C167.002 16.2167 167.214 16.7049 167.626 17.0431C168.002 17.3456 168.488 17.4969 169.082 17.4969C169.74 17.4969 170.34 17.3951 170.88 17.1902L171.112 18.1912C170.48 18.458 169.735 18.5914 168.874 18.5914C167.841 18.5914 167.028 18.2957 166.439 17.7045C165.848 17.1132 165.555 16.3199 165.555 15.3244C165.555 14.3467 165.828 13.5327 166.378 12.8837C166.953 12.1907 167.729 11.8442 168.71 11.8442C169.669 11.8442 170.398 12.1907 170.89 12.8837C171.288 13.4337 171.484 14.1144 171.484 14.9229ZM170.069 14.5502C170.081 14.1226 169.983 13.7541 169.782 13.4434C169.525 13.0432 169.133 12.8425 168.602 12.8425C168.118 12.8425 167.724 13.0377 167.422 13.4296C167.176 13.7417 167.03 14.1144 166.982 14.5502H170.069Z" fill="white"/>
<path d="M75.8993 43.3178H72.6863L70.9263 37.9429H64.8086L63.1321 43.3178H60.0039L66.065 25.0193H69.8086L75.8993 43.3178ZM70.3957 35.6879L68.8041 30.9098C68.6357 30.4217 68.3202 29.2722 67.8547 27.4627H67.7981C67.6128 28.2409 67.3143 29.3904 66.904 30.9098L65.3406 35.6879H70.3957V35.6879Z" fill="white"/>
<path d="M91.4845 36.5582C91.4845 38.8022 90.8605 40.5759 89.6127 41.878C88.495 43.0372 87.107 43.616 85.4503 43.616C83.6619 43.616 82.3773 42.9918 81.5949 41.7433H81.5383V48.6939H78.5219V34.4668C78.5219 33.056 78.4837 31.6082 78.4102 30.1232H81.0629L81.2313 32.2145H81.2879C82.2938 30.6388 83.8204 29.8523 85.8691 29.8523C87.4706 29.8523 88.8076 30.4669 89.8772 31.6975C90.9497 32.9295 91.4845 34.5493 91.4845 36.5582ZM88.4115 36.6654C88.4115 35.3812 88.1144 34.3224 87.5173 33.4892C86.8651 32.6202 85.9893 32.1857 84.8914 32.1857C84.1472 32.1857 83.4709 32.4277 82.8668 32.9048C82.2613 33.386 81.8651 34.0144 81.6798 34.7927C81.5864 35.1557 81.5397 35.4527 81.5397 35.6864V37.8864C81.5397 38.8462 81.8425 39.656 82.448 40.3174C83.0536 40.9788 83.8402 41.3088 84.8079 41.3088C85.944 41.3088 86.8283 40.8825 87.4607 40.0328C88.0946 39.1817 88.4115 38.0597 88.4115 36.6654Z" fill="white"/>
<path d="M107.104 36.5582C107.104 38.8022 106.48 40.5759 105.231 41.878C104.115 43.0372 102.727 43.616 101.07 43.616C99.2816 43.616 97.997 42.9918 97.216 41.7433H97.1594V48.6939H94.143V34.4668C94.143 33.056 94.1048 31.6082 94.0312 30.1232H96.684L96.8524 32.2145H96.909C97.9135 30.6388 99.4401 29.8523 101.49 29.8523C103.09 29.8523 104.427 30.4669 105.5 31.6975C106.568 32.9295 107.104 34.5493 107.104 36.5582ZM104.031 36.6654C104.031 35.3812 103.733 34.3224 103.136 33.4892C102.483 32.6202 101.61 32.1857 100.511 32.1857C99.7655 32.1857 99.0906 32.4277 98.4851 32.9048C97.8796 33.386 97.4848 34.0144 97.2995 34.7927C97.2075 35.1557 97.1594 35.4527 97.1594 35.6864V37.8864C97.1594 38.8462 97.4622 39.656 98.0649 40.3174C98.6704 40.9774 99.4571 41.3088 100.428 41.3088C101.564 41.3088 102.448 40.8825 103.08 40.0328C103.714 39.1817 104.031 38.0597 104.031 36.6654Z" fill="white"/>
<path d="M124.564 38.1863C124.564 39.7428 124.008 41.0092 122.891 41.9868C121.665 43.0552 119.957 43.5887 117.763 43.5887C115.737 43.5887 114.112 43.2092 112.883 42.4489L113.582 40.0055C114.906 40.7837 116.359 41.1742 117.942 41.1742C119.078 41.1742 119.963 40.924 120.598 40.4262C121.23 39.9285 121.546 39.2602 121.546 38.427C121.546 37.6845 121.285 37.0588 120.763 36.5515C120.244 36.0441 119.377 35.5725 118.166 35.1366C114.869 33.9417 113.222 32.1913 113.222 29.8896C113.222 28.3853 113.8 27.152 114.956 26.1922C116.107 25.2311 117.644 24.7512 119.565 24.7512C121.278 24.7512 122.702 25.0413 123.838 25.6202L123.084 28.01C122.023 27.449 120.823 27.1685 119.48 27.1685C118.419 27.1685 117.59 27.4228 116.996 27.9288C116.493 28.3812 116.242 28.9326 116.242 29.5857C116.242 30.309 116.529 30.9071 117.106 31.3773C117.608 31.8118 118.521 32.2821 119.845 32.7895C121.465 33.4233 122.655 34.1645 123.42 35.0142C124.183 35.8612 124.564 36.9213 124.564 38.1863Z" fill="white"/>
<path d="M134.534 32.3233H131.209V38.7294C131.209 40.3588 131.795 41.1728 132.969 41.1728C133.508 41.1728 133.955 41.1274 134.309 41.0367L134.392 43.2628C133.798 43.4787 133.016 43.5873 132.047 43.5873C130.855 43.5873 129.924 43.2339 129.252 42.5286C128.583 41.8218 128.246 40.6366 128.246 38.9714V32.3206H126.266V30.1206H128.246V27.7047L131.209 26.8357V30.1206H134.534V32.3233Z" fill="white"/>
<path d="M149.532 36.6119C149.532 38.64 148.935 40.3051 147.744 41.6073C146.495 42.9479 144.836 43.6161 142.769 43.6161C140.777 43.6161 139.191 42.974 138.009 41.6898C136.826 40.4055 136.234 38.7844 136.234 36.8305C136.234 34.7859 136.843 33.1111 138.064 31.809C139.282 30.5055 140.926 29.8538 142.993 29.8538C144.985 29.8538 146.588 30.4959 147.798 31.7815C148.955 33.0286 149.532 34.6388 149.532 36.6119ZM146.403 36.7068C146.403 35.4899 146.135 34.4463 145.593 33.5759C144.961 32.5226 144.057 31.9974 142.885 31.9974C141.673 31.9974 140.752 32.524 140.119 33.5759C139.578 34.4476 139.31 35.5078 139.31 36.7618C139.31 37.9786 139.578 39.0223 140.119 39.8913C140.772 40.9445 141.683 41.4698 142.859 41.4698C144.01 41.4698 144.914 40.9335 145.566 39.8638C146.123 38.9769 146.403 37.9223 146.403 36.7068Z" fill="white"/>
<path d="M159.338 32.7013C159.039 32.6477 158.721 32.6202 158.387 32.6202C157.326 32.6202 156.505 33.0093 155.928 33.7889C155.426 34.4764 155.174 35.3454 155.174 36.3945V43.3177H152.159L152.187 34.2784C152.187 32.7577 152.149 31.373 152.074 30.1245H154.702L154.812 32.649H154.895C155.214 31.7814 155.716 31.0829 156.404 30.559C157.076 30.0874 157.801 29.8523 158.584 29.8523C158.863 29.8523 159.114 29.8715 159.338 29.9059V32.7013Z" fill="white"/>
<path d="M172.827 36.0965C172.827 36.6218 172.792 37.0645 172.717 37.4261H163.668C163.703 38.7296 164.14 39.7265 164.981 40.414C165.743 41.0286 166.729 41.3366 167.94 41.3366C169.28 41.3366 170.503 41.129 171.602 40.7124L172.075 42.7474C170.79 43.2919 169.273 43.5628 167.523 43.5628C165.418 43.5628 163.765 42.9605 162.563 41.7574C161.363 40.5543 160.762 38.9386 160.762 36.9119C160.762 34.9223 161.321 33.2654 162.44 31.944C163.611 30.5333 165.194 29.8279 167.186 29.8279C169.143 29.8279 170.624 30.5333 171.63 31.944C172.427 33.0646 172.827 34.4506 172.827 36.0965ZM169.951 35.3361C169.971 34.4671 169.774 33.7164 169.365 33.0825C168.843 32.2671 168.041 31.8601 166.961 31.8601C165.975 31.8601 165.173 32.2575 164.56 33.055C164.058 33.6889 163.76 34.4493 163.668 35.3348H169.951V35.3361Z" fill="white"/>
</svg>
