<svg width="18" height="20" viewBox="0 0 18 20" fill="none" xmlns="http://www.w3.org/2000/svg">
<path d="M12.5868 11.25C13.2693 11.25 13.8704 11.5973 14.2231 12.125H8.86369C8.28353 12.125 7.72713 12.3554 7.31689 12.7657C6.90666 13.1759 6.67619 13.7323 6.67619 14.3125V17.8125C6.67619 17.9542 6.68931 18.0919 6.71556 18.2255C4.14394 18.0627 2.22156 17.1317 1.00181 15.4193C0.711112 15.0117 0.554811 14.5235 0.554688 14.0228V13.2178C0.554919 12.696 0.762323 12.1956 1.13132 11.8266C1.50032 11.4576 2.00072 11.2502 2.52256 11.25H12.5868ZM7.55119 0.754333C8.12572 0.754333 8.69463 0.867496 9.22543 1.08736C9.75623 1.30722 10.2385 1.62948 10.6448 2.03574C11.051 2.442 11.3733 2.92429 11.5932 3.45509C11.813 3.98589 11.9262 4.5548 11.9262 5.12933C11.9262 5.70387 11.813 6.27277 11.5932 6.80357C11.3733 7.33437 11.051 7.81667 10.6448 8.22293C10.2385 8.62918 9.75623 8.95144 9.22543 9.17131C8.69463 9.39117 8.12572 9.50433 7.55119 9.50433C6.39087 9.50433 5.27807 9.0434 4.4576 8.22293C3.63712 7.40245 3.17619 6.28966 3.17619 5.12933C3.17619 3.96901 3.63712 2.85621 4.4576 2.03574C5.27807 1.21527 6.39087 0.754333 7.55119 0.754333ZM7.55119 14.3125C7.55119 13.9644 7.68947 13.6305 7.93561 13.3844C8.18175 13.1382 8.51559 13 8.86369 13H15.8637C16.2118 13 16.5456 13.1382 16.7918 13.3844C17.0379 13.6305 17.1762 13.9644 17.1762 14.3125V17.8125C17.1762 18.1606 17.0379 18.4944 16.7918 18.7405C16.5456 18.9867 16.2118 19.125 15.8637 19.125H8.86369C8.51559 19.125 8.18175 18.9867 7.93561 18.7405C7.68947 18.4944 7.55119 18.1606 7.55119 17.8125V14.3125ZM16.3012 14.75C16.0691 14.75 15.8466 14.6578 15.6825 14.4937C15.5184 14.3296 15.4262 14.107 15.4262 13.875H14.5512C14.5512 14.3391 14.7356 14.7842 15.0638 15.1124C15.3919 15.4406 15.8371 15.625 16.3012 15.625V14.75ZM16.3012 16.5C15.8371 16.5 15.3919 16.6843 15.0638 17.0125C14.7356 17.3407 14.5512 17.7858 14.5512 18.25H15.4262C15.4262 18.0179 15.5184 17.7953 15.6825 17.6312C15.8466 17.4671 16.0691 17.375 16.3012 17.375V16.5ZM9.30119 13.875C9.30119 14.107 9.209 14.3296 9.0449 14.4937C8.88081 14.6578 8.65825 14.75 8.42619 14.75V15.625C8.89032 15.625 9.33544 15.4406 9.66362 15.1124C9.99181 14.7842 10.1762 14.3391 10.1762 13.875H9.30119ZM10.1762 18.25C10.1762 17.7858 9.99181 17.3407 9.66362 17.0125C9.33544 16.6843 8.89032 16.5 8.42619 16.5V17.375C8.65825 17.375 8.88081 17.4671 9.0449 17.6312C9.209 17.7953 9.30119 18.0179 9.30119 18.25H10.1762ZM13.8949 16.0625C13.8949 15.6563 13.7336 15.2669 13.4464 14.9797C13.1593 14.6925 12.7698 14.5312 12.3637 14.5312C11.9576 14.5312 11.5681 14.6925 11.2809 14.9797C10.9938 15.2669 10.8324 15.6563 10.8324 16.0625C10.8324 16.4686 10.9938 16.8581 11.2809 17.1452C11.5681 17.4324 11.9576 17.5937 12.3637 17.5937C12.7698 17.5937 13.1593 17.4324 13.4464 17.1452C13.7336 16.8581 13.8949 16.4686 13.8949 16.0625Z" fill="#00FF57"/>
</svg>
