<svg width="114" height="50" viewBox="0 0 114 50" fill="none" xmlns="http://www.w3.org/2000/svg">
<g clip-path="url(#clip0_2846_3841)">
<path d="M29.957 0.185791V39.3534H25.6001C24.8517 39.3529 24.134 39.0536 23.6051 38.5213C23.076 37.9888 22.7787 37.267 22.7787 36.5144V36.0512C20.775 38.6259 17.826 40.1442 13.7652 40.1442C6.3076 40.1442 0.1875 33.7088 0.1875 25.3722C0.1875 17.0358 6.3076 10.6005 13.7652 10.6005C17.8353 10.6005 20.775 12.1111 22.7787 14.6934V4.97817C22.7787 4.35103 22.9016 3.73003 23.1404 3.15066C23.3789 2.57129 23.7287 2.04471 24.1697 1.6014C24.6107 1.15791 25.1343 0.806049 25.7105 0.566087C26.2867 0.326124 26.9042 0.202519 27.5279 0.202519L29.957 0.185791ZM22.7787 25.3648C22.7787 20.6653 19.495 17.4748 15.0991 17.4748C10.6479 17.4748 7.3658 20.6653 7.3658 25.3648C7.3658 30.0642 10.6479 33.2549 15.0991 33.2549C19.495 33.2549 22.7787 30.0642 22.7787 25.3648Z" fill="white"/>
<path d="M63.4686 10.6154L53.3413 38.5927C50.4478 46.6501 45.719 50.1756 38.6516 49.7849V43.0687C42.6016 43.1265 44.6051 41.4464 45.9409 37.6977L34.5352 10.6154H38.9477C39.9579 10.6152 40.9445 10.9224 41.7779 11.4964C42.6114 12.0706 43.2525 12.8849 43.6172 13.8321L49.6133 29.417L55.7889 10.6154H63.4686Z" fill="white"/>
<path d="M113.816 10.6153V17.5473C113.817 17.6861 113.791 17.8239 113.738 17.9525C113.686 18.0809 113.609 18.1978 113.511 18.296C113.413 18.3943 113.298 18.4722 113.17 18.5252C113.042 18.578 112.905 18.6047 112.767 18.604C109.252 18.5687 105.367 20.4439 105.367 25.7796V39.1525H101.951C100.95 39.1525 99.9883 38.7523 99.2795 38.0399C98.5707 37.3276 98.1722 36.3612 98.1719 35.3534V10.6097H102.107C102.534 10.6097 102.956 10.6943 103.35 10.8586C103.745 11.0229 104.103 11.2638 104.404 11.5674C104.706 11.8711 104.945 12.2313 105.108 12.628C105.271 13.0244 105.354 13.4495 105.354 13.8785V15.9809C106.801 12.1763 110.306 10.6097 113.812 10.6097L113.816 10.6153Z" fill="white"/>
<path d="M93.5422 24.8031C93.5422 33.0447 87.054 39.4057 78.9674 39.4057C70.8806 39.4057 64.455 33.0447 64.4531 24.8031C66.2496 27.6198 69.2378 28.4365 72.603 28.896C73.8981 31.0895 76.2329 32.4421 78.9655 32.4421C83.2039 32.4421 86.449 29.2886 86.449 24.8142C86.449 21.0376 84.1383 18.2023 80.8765 17.4098C81.2966 15.259 80.4788 12.0146 78.9655 10.2601C87.054 10.2546 93.5422 16.5726 93.5422 24.8031Z" fill="white"/>
<path d="M80.8779 17.4043C80.2557 17.2538 79.6178 17.1781 78.9778 17.1792H78.9297C78.9558 16.9196 78.9687 16.6588 78.9686 16.3978V10.2584C80.4802 12.0036 81.2978 15.2538 80.8779 17.4043Z" fill="black"/>
<path d="M72.6063 28.896C69.2411 28.44 66.2496 27.6233 64.4531 24.803L71.5444 24.7211V24.8179C71.5444 24.8904 71.5444 24.9647 71.5444 25.0374C71.5633 26.3939 71.929 27.7227 72.6063 28.896Z" fill="black"/>
<path d="M78.9674 16.3978V16.6216C78.9674 21.0037 75.1367 24.7734 71.0194 24.7734L64.4492 24.8049L78.9896 10.2194L78.9674 16.3978Z" fill="white"/>
</g>
<defs>
<clipPath id="clip0_2846_3841">
<rect width="114" height="50" fill="white"/>
</clipPath>
</defs>
</svg>
