<svg width="191" height="55" viewBox="0 0 191 55" fill="none" xmlns="http://www.w3.org/2000/svg">
<path d="M183.579 54.9998H7.09452C3.21364 54.9998 0.0351562 51.9043 0.0351562 48.1248V6.87476C0.0351562 3.09522 3.21364 -0.000244141 7.09452 -0.000244141H183.579C187.46 -0.000244141 190.638 3.09522 190.638 6.87476V48.1248C190.638 51.9043 187.46 54.9998 183.579 54.9998Z" fill="black"/>
<path d="M183.579 1.10147C186.847 1.10147 189.507 3.69163 189.507 6.87476V48.1248C189.507 51.3079 186.847 53.898 183.579 53.898H7.09452C3.82604 53.898 1.16642 51.3079 1.16642 48.1248V6.87476C1.16642 3.69163 3.82604 1.10147 7.09452 1.10147H183.579ZM183.579 -0.000244141H7.09452C3.21364 -0.000244141 0.0351562 3.09522 0.0351562 6.87476V48.1248C0.0351562 51.9043 3.21364 54.9998 7.09452 54.9998H183.579C187.46 54.9998 190.638 51.9043 190.638 48.1248V6.87476C190.638 3.09522 187.46 -0.000244141 183.579 -0.000244141Z" fill="#A6A6A6"/>
<path d="M14.768 10.3658C14.3533 10.7886 14.1133 11.4469 14.1133 12.2994V42.7075C14.1133 43.56 14.3533 44.2183 14.768 44.6411L14.8704 44.7339L32.367 27.7011V27.2989L14.8704 10.2661L14.768 10.3658Z" fill="url(#paint0_linear_2441_163)"/>
<path d="M38.1929 33.3813L32.3672 27.7009V27.2987L38.2 21.6182L38.3306 21.6921L45.2382 25.5198C47.2095 26.606 47.2095 28.3935 45.2382 29.4867L38.3306 33.3074L38.1929 33.3813V33.3813Z" fill="url(#paint1_linear_2441_163)"/>
<path d="M38.3319 33.3077L32.3685 27.5L14.7695 44.6411C15.4243 45.3114 16.492 45.3922 17.7062 44.7219L38.3319 33.3077" fill="url(#paint2_linear_2441_163)"/>
<path d="M38.3319 21.6921L17.7062 10.2779C16.492 9.61445 15.4243 9.69522 14.7695 10.3655L32.3685 27.4998L38.3319 21.6921Z" fill="url(#paint3_linear_2441_163)"/>
<path d="M66.981 14.0847C66.981 15.2329 66.628 16.1524 65.9327 16.8382C65.1332 17.6512 64.0919 18.0602 62.816 18.0602C61.5964 18.0602 60.5552 17.6443 59.701 16.8244C58.8451 15.9926 58.418 14.9716 58.418 13.7496C58.418 12.5276 58.8451 11.5066 59.701 10.6816C60.5552 9.8549 61.5964 9.43896 62.816 9.43896C63.4231 9.43896 64.0019 9.561 64.5543 9.78787C65.1049 10.0165 65.5532 10.3258 65.8779 10.7074L65.1402 11.4327C64.5737 10.7813 63.8025 10.4599 62.816 10.4599C61.9265 10.4599 61.1552 10.7624 60.5005 11.3726C59.8528 11.9844 59.5281 12.7768 59.5281 13.7496C59.5281 14.7224 59.8528 15.5216 60.5005 16.1335C61.1552 16.7368 61.9265 17.0462 62.816 17.0462C63.7601 17.0462 64.5543 16.7368 65.1808 16.1266C65.5938 15.7227 65.8285 15.1658 65.8903 14.4543H62.816V13.4608H66.9174C66.9669 13.6757 66.981 13.8837 66.981 14.0847V14.0847Z" fill="white" stroke="white" stroke-width="0.173479" stroke-miterlimit="10"/>
<path d="M73.4863 10.6405H69.6336V13.253H73.1069V14.2465H69.6336V16.859H73.4863V17.8713H68.543V9.62817H73.4863V10.6405Z" fill="white" stroke="white" stroke-width="0.173479" stroke-miterlimit="10"/>
<path d="M78.0788 17.8713H76.9881V10.6405H74.625V9.62817H80.4437V10.6405H78.0788V17.8713V17.8713Z" fill="white" stroke="white" stroke-width="0.173479" stroke-miterlimit="10"/>
<path d="M84.6562 17.8713V9.62817H85.7452V17.8713H84.6562Z" fill="white" stroke="white" stroke-width="0.173479" stroke-miterlimit="10"/>
<path d="M90.571 17.8713H89.4891V10.6405H87.1172V9.62817H92.9429V10.6405H90.571V17.8713Z" fill="white" stroke="white" stroke-width="0.173479" stroke-miterlimit="10"/>
<path d="M103.964 16.8107C103.129 17.6443 102.095 18.0602 100.861 18.0602C99.6206 18.0602 98.5864 17.6443 97.7517 16.8107C96.9186 15.9788 96.5039 14.9579 96.5039 13.7496C96.5039 12.5413 96.9186 11.5204 97.7517 10.6885C98.5864 9.8549 99.6206 9.43896 100.861 9.43896C102.088 9.43896 103.122 9.8549 103.957 10.6954C104.797 11.5341 105.212 12.5482 105.212 13.7496C105.212 14.9579 104.797 15.9788 103.964 16.8107ZM98.5582 16.1197C99.1865 16.7368 99.9506 17.0462 100.861 17.0462C101.765 17.0462 102.536 16.7368 103.157 16.1197C103.784 15.5027 104.102 14.7104 104.102 13.7496C104.102 12.7888 103.784 11.9965 103.157 11.3794C102.536 10.7624 101.765 10.453 100.861 10.453C99.9506 10.453 99.1865 10.7624 98.5582 11.3794C97.9317 11.9965 97.614 12.7888 97.614 13.7496C97.614 14.7104 97.9317 15.5027 98.5582 16.1197V16.1197Z" fill="white" stroke="white" stroke-width="0.173479" stroke-miterlimit="10"/>
<path d="M106.738 17.8713V9.62817H108.062L112.178 16.0391H112.225L112.178 14.4544V9.62817H113.266V17.8713H112.13L107.82 11.1441H107.772L107.82 12.7357V17.8713H106.738V17.8713Z" fill="white" stroke="white" stroke-width="0.173479" stroke-miterlimit="10"/>
<path d="M96.2352 29.9096C92.919 29.9096 90.21 32.3674 90.21 35.7585C90.21 39.1221 92.919 41.6057 96.2352 41.6057C99.5584 41.6057 102.267 39.1221 102.267 35.7585C102.267 32.3674 99.5584 29.9096 96.2352 29.9096ZM96.2352 39.3025C94.4156 39.3025 92.8502 37.8399 92.8502 35.7585C92.8502 33.6496 94.4156 32.2127 96.2352 32.2127C98.0547 32.2127 99.6272 33.6496 99.6272 35.7585C99.6272 37.8399 98.0547 39.3025 96.2352 39.3025V39.3025ZM83.0889 29.9096C79.7657 29.9096 77.0637 32.3674 77.0637 35.7585C77.0637 39.1221 79.7657 41.6057 83.0889 41.6057C86.4103 41.6057 89.114 39.1221 89.114 35.7585C89.114 32.3674 86.4103 29.9096 83.0889 29.9096ZM83.0889 39.3025C81.2675 39.3025 79.6968 37.8399 79.6968 35.7585C79.6968 33.6496 81.2675 32.2127 83.0889 32.2127C84.9084 32.2127 86.4738 33.6496 86.4738 35.7585C86.4738 37.8399 84.9084 39.3025 83.0889 39.3025ZM67.4453 31.7022V34.1875H73.5393C73.3611 35.5763 72.8845 36.5972 72.1539 37.3088C71.2644 38.1682 69.879 39.1221 67.4453 39.1221C63.695 39.1221 60.7583 36.1744 60.7583 32.5221C60.7583 28.8697 63.695 25.9221 67.4453 25.9221C69.4731 25.9221 70.9485 26.6938 72.0374 27.6941L73.8358 25.9427C72.3127 24.5265 70.2867 23.4385 67.4453 23.4385C62.3026 23.4385 57.9805 27.5136 57.9805 32.5221C57.9805 37.5305 62.3026 41.6057 67.4453 41.6057C70.2249 41.6057 72.3127 40.7188 73.954 39.055C75.6359 37.4171 76.1601 35.1139 76.1601 33.2543C76.1601 32.6768 76.1107 32.1457 76.0224 31.7022H67.4453ZM131.414 33.6289C130.918 32.321 129.388 29.9096 126.271 29.9096C123.183 29.9096 120.611 32.2797 120.611 35.7585C120.611 39.0344 123.156 41.6057 126.567 41.6057C129.326 41.6057 130.918 39.9677 131.573 39.0138L129.525 37.6852C128.842 38.658 127.912 39.3025 126.567 39.3025C125.232 39.3025 124.273 38.7061 123.659 37.5305L131.691 34.2941L131.414 33.6289V33.6289ZM123.225 35.5763C123.156 33.3213 125.023 32.1663 126.361 32.1663C127.409 32.1663 128.299 32.6768 128.595 33.4072L123.225 35.5763V35.5763ZM116.697 41.2499H119.337V24.0624H116.697V41.2499ZM112.373 31.2124H112.285C111.692 30.5283 110.56 29.9096 109.127 29.9096C106.12 29.9096 103.37 32.4808 103.37 35.7774C103.37 39.055 106.12 41.6057 109.127 41.6057C110.56 41.6057 111.692 40.9818 112.285 40.2771H112.373V41.1158C112.373 43.3519 111.146 44.5533 109.168 44.5533C107.555 44.5533 106.554 43.4189 106.141 42.465L103.845 43.3983C104.507 44.9486 106.259 46.8564 109.168 46.8564C112.263 46.8564 114.875 45.0827 114.875 40.7669V30.2654H112.373V31.2124V31.2124ZM109.353 39.3025C107.534 39.3025 106.011 37.8193 106.011 35.7774C106.011 33.7166 107.534 32.2127 109.353 32.2127C111.146 32.2127 112.56 33.7166 112.56 35.7774C112.56 37.8193 111.146 39.3025 109.353 39.3025V39.3025ZM143.775 24.0624H137.46V41.2499H140.093V34.7375H143.775C146.699 34.7375 149.567 32.6768 149.567 29.3991C149.567 26.1232 146.692 24.0624 143.775 24.0624V24.0624ZM143.844 32.3468H140.093V26.4532H143.844C145.81 26.4532 146.932 28.043 146.932 29.3991C146.932 30.7294 145.81 32.3468 143.844 32.3468ZM160.121 29.8769C158.218 29.8769 156.24 30.695 155.426 32.5083L157.763 33.4622C158.266 32.5083 159.191 32.1989 160.168 32.1989C161.534 32.1989 162.92 32.9982 162.941 34.4093V34.5897C162.464 34.3216 161.444 33.9246 160.189 33.9246C157.673 33.9246 155.108 35.2738 155.108 37.7918C155.108 40.0949 157.17 41.5782 159.487 41.5782C161.259 41.5782 162.237 40.7996 162.851 39.8938H162.941V41.2224H165.484V34.6293C165.484 31.5819 163.147 29.8769 160.121 29.8769ZM159.803 39.2957C158.942 39.2957 157.742 38.8797 157.742 37.8399C157.742 36.5096 159.238 35.9991 160.534 35.9991C161.693 35.9991 162.237 36.2483 162.941 36.5766C162.734 38.1682 161.328 39.2957 159.803 39.2957V39.2957ZM174.749 30.2533L171.723 37.7041H171.633L168.504 30.2533H165.664L170.366 40.6655L167.683 46.4594H170.434L177.679 30.2533H174.749V30.2533ZM151.014 41.2499H153.654V24.0624H151.014V41.2499Z" fill="white"/>
<defs>
<linearGradient id="paint0_linear_2441_163" x1="30.8135" y1="43.0241" x2="7.74582" y2="19.3378" gradientUnits="userSpaceOnUse">
<stop stop-color="#00A0FF"/>
<stop offset="0.0066" stop-color="#00A1FF"/>
<stop offset="0.2601" stop-color="#00BEFF"/>
<stop offset="0.5122" stop-color="#00D2FF"/>
<stop offset="0.7604" stop-color="#00DFFF"/>
<stop offset="1" stop-color="#00E3FF"/>
</linearGradient>
<linearGradient id="paint1_linear_2441_163" x1="47.8052" y1="27.4979" x2="13.6422" y2="27.4979" gradientUnits="userSpaceOnUse">
<stop stop-color="#FFE000"/>
<stop offset="0.4087" stop-color="#FFBD00"/>
<stop offset="0.7754" stop-color="#FFA500"/>
<stop offset="1" stop-color="#FF9C00"/>
</linearGradient>
<linearGradient id="paint2_linear_2441_163" x1="35.0892" y1="24.3429" x2="3.80751" y2="-7.77772" gradientUnits="userSpaceOnUse">
<stop stop-color="#FF3A44"/>
<stop offset="1" stop-color="#C31162"/>
</linearGradient>
<linearGradient id="paint3_linear_2441_163" x1="10.3395" y1="54.7575" x2="24.3082" y2="40.4143" gradientUnits="userSpaceOnUse">
<stop stop-color="#32A071"/>
<stop offset="0.0685" stop-color="#2DA771"/>
<stop offset="0.4762" stop-color="#15CF74"/>
<stop offset="0.8009" stop-color="#06E775"/>
<stop offset="1" stop-color="#00F076"/>
</linearGradient>
</defs>
</svg>
