<svg width="26" height="17" viewBox="0 0 26 17" fill="none" xmlns="http://www.w3.org/2000/svg">
<path d="M13.1889 1.49453L9.25641 4.71016C8.60234 5.24336 8.47641 6.20313 8.97203 6.88809C9.49609 7.61816 10.5158 7.76172 11.2186 7.20801L15.2527 4.0416C15.537 3.82012 15.9433 3.86934 16.1667 4.15645C16.3902 4.44356 16.3373 4.85371 16.053 5.0793L15.2039 5.74375L20.8508 10.9938V3.25H20.8223L20.6639 3.14746L17.7145 1.24023C17.093 0.838281 16.3658 0.625 15.6264 0.625C14.7408 0.625 13.8795 0.932617 13.1889 1.49453ZM14.1152 6.59688L12.0148 8.2457C10.7352 9.25469 8.87859 8.99219 7.91984 7.66328C7.01797 6.41231 7.24547 4.66504 8.43578 3.69297L11.8158 0.932617C11.3445 0.731641 10.8367 0.629102 10.3208 0.629102C9.55703 0.625 8.81359 0.854688 8.17578 1.28125L5.25078 3.25V12.4375H6.39641L10.1095 15.8582C10.9058 16.5924 12.1367 16.535 12.8639 15.7311C13.0873 15.4809 13.2377 15.1897 13.3148 14.8861L14.0055 15.526C14.7977 16.2602 16.0327 16.2068 16.7598 15.407C16.9427 15.2061 17.0767 14.9723 17.162 14.7303C17.9502 15.2635 19.0227 15.1527 19.6848 14.4227C20.412 13.6229 20.3592 12.376 19.567 11.6418L14.1152 6.59688ZM0.700781 3.25C0.343281 3.25 0.0507812 3.54531 0.0507812 3.90625V12.4375C0.0507812 13.1635 0.631719 13.75 1.35078 13.75H2.65078C3.36984 13.75 3.95078 13.1635 3.95078 12.4375V3.25H0.700781ZM2.00078 11.125C2.17317 11.125 2.3385 11.1941 2.4604 11.3172C2.5823 11.4403 2.65078 11.6072 2.65078 11.7813C2.65078 11.9553 2.5823 12.1222 2.4604 12.2453C2.3385 12.3684 2.17317 12.4375 2.00078 12.4375C1.82839 12.4375 1.66306 12.3684 1.54116 12.2453C1.41926 12.1222 1.35078 11.9553 1.35078 11.7813C1.35078 11.6072 1.41926 11.4403 1.54116 11.3172C1.66306 11.1941 1.82839 11.125 2.00078 11.125ZM22.1508 3.25V12.4375C22.1508 13.1635 22.7317 13.75 23.4508 13.75H24.7508C25.4698 13.75 26.0508 13.1635 26.0508 12.4375V3.90625C26.0508 3.54531 25.7583 3.25 25.4008 3.25H22.1508ZM23.4508 11.7813C23.4508 11.6072 23.5193 11.4403 23.6412 11.3172C23.7631 11.1941 23.9284 11.125 24.1008 11.125C24.2732 11.125 24.4385 11.1941 24.5604 11.3172C24.6823 11.4403 24.7508 11.6072 24.7508 11.7813C24.7508 11.9553 24.6823 12.1222 24.5604 12.2453C24.4385 12.3684 24.2732 12.4375 24.1008 12.4375C23.9284 12.4375 23.7631 12.3684 23.6412 12.2453C23.5193 12.1222 23.4508 11.9553 23.4508 11.7813Z" fill="#00FF57"/>
</svg>
