<svg width="15" height="20" viewBox="0 0 15 20" fill="none" xmlns="http://www.w3.org/2000/svg">
<path d="M2.30078 19.2501C1.81953 19.2501 1.4077 19.0789 1.06528 18.7364C0.722864 18.394 0.551365 17.9819 0.550781 17.5001V8.75006C0.550781 8.26881 0.722281 7.85698 1.06528 7.51456C1.40828 7.17215 1.82011 7.00065 2.30078 7.00006H3.17578V5.25006C3.17578 4.03965 3.60249 3.00802 4.45591 2.15519C5.30932 1.30235 6.34095 0.875645 7.55078 0.875062C8.76061 0.874478 9.79253 1.30119 10.6465 2.15519C11.5005 3.00919 11.9269 4.04081 11.9258 5.25006V7.00006H12.8008C13.282 7.00006 13.6942 7.17156 14.0372 7.51456C14.3802 7.85756 14.5514 8.2694 14.5508 8.75006V17.5001C14.5508 17.9813 14.3796 18.3934 14.0372 18.7364C13.6947 19.0794 13.2826 19.2507 12.8008 19.2501H2.30078ZM7.55078 14.8751C8.03203 14.8751 8.44415 14.7039 8.78715 14.3614C9.13015 14.019 9.30136 13.6069 9.30078 13.1251C9.3002 12.6432 9.12899 12.2314 8.78715 11.8896C8.44532 11.5477 8.0332 11.3762 7.55078 11.3751C7.06836 11.3739 6.65653 11.5454 6.31528 11.8896C5.97403 12.2337 5.80253 12.6456 5.80078 13.1251C5.79903 13.6046 5.97053 14.0167 6.31528 14.3614C6.66003 14.7062 7.07186 14.8774 7.55078 14.8751ZM4.92578 7.00006H10.1758V5.25006C10.1758 4.5209 9.92057 3.9011 9.41015 3.39069C8.89974 2.88027 8.27995 2.62506 7.55078 2.62506C6.82161 2.62506 6.20182 2.88027 5.69141 3.39069C5.18099 3.9011 4.92578 4.5209 4.92578 5.25006V7.00006Z" fill="#00FF57"/>
</svg>
