<svg width="161" height="45" viewBox="0 0 161 45" fill="none" xmlns="http://www.w3.org/2000/svg">
    <path d="M66.4055 14.6009H59.5975C59.388 14.6009 59.2484 14.566 59.1785 14.4962C59.132 14.4031 59.1087 14.2518 59.1087 14.0423V12.3316C59.1087 12.1454 59.132 12.0057 59.1785 11.9126C59.2484 11.8195 59.388 11.773 59.5975 11.773H76.7048C76.9142 11.773 77.0422 11.8195 77.0888 11.9126C77.1586 12.0057 77.1935 12.1454 77.1935 12.3316V14.0423C77.1935 14.2518 77.1586 14.4031 77.0888 14.4962C77.0422 14.566 76.9142 14.6009 76.7048 14.6009H69.6873V35.6184C69.6873 35.8744 69.6407 36.0374 69.5476 36.1072C69.4545 36.177 69.2916 36.2119 69.0588 36.2119H67.0688C66.8361 36.2119 66.6615 36.177 66.5451 36.1072C66.452 36.0374 66.4055 35.8744 66.4055 35.6184V14.6009ZM103.583 29.6832C103.583 30.847 103.362 31.8595 102.92 32.7206C102.478 33.5818 101.873 34.3033 101.104 34.8852C100.336 35.4671 99.4286 35.8977 98.3812 36.177C97.3339 36.4563 96.205 36.596 94.9947 36.596C94.3197 36.596 93.6098 36.561 92.865 36.4912C92.1202 36.4447 91.3638 36.3516 90.5957 36.2119C89.8276 36.0723 89.0595 35.8861 88.2914 35.6533C87.5466 35.4206 86.8251 35.1296 86.1268 34.7805C85.8708 34.6408 85.8243 34.4081 85.9872 34.0822L86.8251 32.2319C86.9415 31.9758 87.1277 31.906 87.3837 32.0224C88.594 32.5577 89.8392 32.9767 91.1194 33.2792C92.4228 33.5585 93.6098 33.6982 94.6805 33.6982C96.4494 33.6982 97.8226 33.3723 98.8002 32.7206C99.801 32.0457 100.301 31.0797 100.301 29.8229C100.301 29.2177 100.173 28.694 99.9174 28.2518C99.6846 27.7863 99.3239 27.3673 98.8351 26.9949C98.3696 26.5993 97.7761 26.2385 97.0545 25.9126C96.333 25.5635 95.4951 25.2144 94.5408 24.8653C93.2607 24.3998 92.1318 23.9342 91.1543 23.4687C90.2 23.0032 89.397 22.5028 88.7453 21.9675C88.1169 21.4089 87.6397 20.7921 87.3139 20.1171C86.988 19.4421 86.8251 18.6624 86.8251 17.778C86.8251 15.8694 87.4768 14.3216 88.7802 13.1346C90.1069 11.9475 92.0387 11.354 94.5757 11.354C95.7395 11.354 96.9614 11.4704 98.2416 11.7031C99.545 11.9126 100.755 12.2617 101.873 12.7505C102.129 12.8669 102.21 13.0647 102.117 13.344L101.349 15.2991C101.279 15.4621 101.209 15.5552 101.139 15.5785C101.093 15.6017 101.011 15.5901 100.895 15.5435C99.7079 15.078 98.5674 14.7522 97.4735 14.566C96.4028 14.3565 95.402 14.2518 94.471 14.2518C93.0745 14.2518 91.9922 14.566 91.2241 15.1944C90.456 15.7996 90.072 16.5793 90.072 17.5336C90.072 18.1154 90.2 18.6159 90.456 19.0348C90.7121 19.4538 91.0845 19.8378 91.5732 20.1869C92.0853 20.5361 92.7254 20.8736 93.4934 21.1994C94.2615 21.5253 95.1693 21.8977 96.2166 22.3166C97.1942 22.689 98.1252 23.0847 99.0097 23.5037C99.8941 23.8993 100.674 24.3765 101.349 24.9351C102.024 25.4937 102.559 26.157 102.955 26.9251C103.374 27.6932 103.583 28.6126 103.583 29.6832ZM117.35 35.5486C117.35 35.8279 117.292 36.0141 117.175 36.1072C117.082 36.177 116.908 36.2119 116.652 36.2119H114.906C114.65 36.2119 114.464 36.177 114.347 36.1072C114.231 36.0141 114.173 35.8279 114.173 35.5486V17.743C114.173 16.9517 114.266 16.1952 114.452 15.4737C114.662 14.7289 114.987 14.0888 115.43 13.5535C115.895 12.9949 116.5 12.5527 117.245 12.2268C118.013 11.901 118.956 11.738 120.073 11.738H129.674C129.953 11.738 130.128 11.7962 130.198 11.9126C130.291 12.029 130.337 12.2152 130.337 12.4712V13.9026C130.337 14.1819 130.291 14.3798 130.198 14.4962C130.128 14.5893 129.953 14.6358 129.674 14.6358H120.108C119.13 14.6358 118.42 14.8453 117.978 15.2642C117.559 15.6832 117.35 16.3465 117.35 17.2543V22.1421H128.382C128.638 22.1421 128.801 22.2002 128.871 22.3166C128.964 22.4097 129.011 22.5843 129.011 22.8403V24.2019C129.011 24.4347 128.964 24.6209 128.871 24.7605C128.801 24.8769 128.638 24.9351 128.382 24.9351H117.35V35.5486ZM151.297 33.5935C152.321 33.5935 153.298 33.4771 154.229 33.2443C155.16 33.0116 156.033 32.709 156.848 32.3366C157.104 32.2202 157.29 32.2086 157.407 32.3017C157.523 32.3948 157.604 32.4995 157.651 32.6159L158.314 34.0822C158.454 34.3615 158.5 34.5594 158.454 34.6758C158.407 34.7689 158.303 34.8736 158.14 34.99C157.581 35.3158 156.976 35.5835 156.324 35.793C155.696 36.0024 155.056 36.1654 154.404 36.2817C153.776 36.3981 153.147 36.4796 152.519 36.5261C151.89 36.5727 151.297 36.596 150.738 36.596C149.109 36.596 147.643 36.3516 146.339 35.8628C145.059 35.374 143.977 34.6292 143.092 33.6284C142.208 32.6275 141.521 31.359 141.032 29.8229C140.567 28.2867 140.334 26.4596 140.334 24.3416C140.334 22.3864 140.59 20.6175 141.102 19.0348C141.614 17.4288 142.336 16.0672 143.267 14.95C144.198 13.8095 145.315 12.9367 146.618 12.3316C147.945 11.7264 149.4 11.4238 150.983 11.4238C151.983 11.4238 153.019 11.5169 154.09 11.7031C155.16 11.8661 156.289 12.2501 157.476 12.8553C157.616 12.9251 157.709 13.0182 157.756 13.1346C157.802 13.2509 157.767 13.4255 157.651 13.6582L156.848 15.2642C156.778 15.4039 156.697 15.5086 156.604 15.5785C156.534 15.625 156.406 15.6017 156.219 15.5086C154.59 14.7871 152.891 14.4263 151.122 14.4263C149.796 14.4263 148.655 14.7056 147.701 15.2642C146.77 15.8228 145.99 16.5676 145.362 17.4987C144.756 18.4064 144.314 19.4654 144.035 20.6757C143.756 21.8628 143.616 23.0847 143.616 24.3416C143.616 25.6217 143.732 26.8204 143.965 27.9376C144.221 29.0548 144.64 30.0323 145.222 30.8703C145.827 31.7082 146.618 32.3715 147.596 32.8603C148.597 33.3491 149.83 33.5935 151.297 33.5935Z" fill="#D5D5D5"/>
    <path d="M1.57114 18.1797C0.939867 17.648 0 18.109 0 18.9343V22.0691C0 22.3909 0.155255 22.6928 0.41668 22.8804C2.49609 24.3723 4.35535 25.7351 5.57743 26.8062C7.92078 28.856 10.4852 32.0607 12.2167 37.3293C12.5665 38.3937 13.7422 38.2983 13.5596 37.1928C12.4461 30.4518 7.76327 23.3953 1.57114 18.1797Z" fill="#00FF57"/>
    <path d="M35.0145 0H10.3827C6.76001 0 3.57173 1.84009 1.71444 4.62767C1.43055 5.05376 1.57078 5.61819 1.98615 5.91754C5.69314 8.58913 7.22238 10.7787 10.4431 14.7706C12.0582 16.7731 13.2456 18.5337 14.0054 19.7232C14.3098 20.1796 14.7425 20.8504 15.2155 21.6833C17.9753 26.5561 19.4596 32.9002 19.4092 37.8903C19.388 39.8876 18.9282 41.7553 18.1785 43.4809C17.8754 44.1786 18.3617 45 19.1224 45H19.5797C19.9734 45 20.3341 44.7648 20.4836 44.4007C24.797 33.8942 19.4155 23.2523 16.3825 18.4983C15.859 17.6777 16.7368 16.2427 17.6894 16.0419C17.998 15.9769 18.3172 15.8847 18.6419 15.7581C19.5803 15.3915 20.242 14.8628 20.652 14.4713C23.5074 12.2369 26.4433 11.2519 28.4207 11.409C29.5201 11.4963 31.032 11.985 31.6585 12.4589C32.1107 12.8018 32.4556 13.1537 32.6684 13.3926C32.833 13.5775 33.0505 13.7145 33.2918 13.7697C35.5543 14.2876 36.9246 15.1584 37.7447 15.9474C38.3523 16.5321 37.7194 17.2399 36.8869 17.1057C33.5054 16.5608 27.0105 17.489 26.3401 32.3466C26.1398 36.7613 25.1718 40.4461 23.7822 43.5107C23.4714 44.1961 23.9574 45 24.71 45H35.017C40.7529 45 45.3995 40.3915 45.3995 34.7082V10.2918C45.3995 4.60599 40.7504 0 35.017 0H35.0145Z" fill="#00FF57"/>
    <path d="M6.18373 39.0528C6.18373 39.0532 6.18324 39.0534 6.18301 39.053C5.01144 37.4376 2.61519 35.6451 0.6719 34.3426C0.383717 34.1495 0 34.358 0 34.7049C0 38.9943 2.64822 42.6681 6.40999 44.2141C7.00385 44.4582 7.62613 44.0058 7.58947 43.3648C7.46931 41.2635 6.81627 39.925 6.18445 39.0525C6.18422 39.0522 6.18373 39.0524 6.18373 39.0528Z" fill="#00FF57"/>
</svg>
