<svg width="25" height="33" viewBox="0 0 25 33" fill="none" xmlns="http://www.w3.org/2000/svg">
    <path fill-rule="evenodd" clip-rule="evenodd" d="M18.2629 10.6155C18.3589 10.7113 18.4351 10.8251 18.4871 10.9504C18.5391 11.0756 18.5658 11.21 18.5658 11.3456C18.5658 11.4813 18.5391 11.6156 18.4871 11.7409C18.4351 11.8661 18.3589 11.98 18.2629 12.0757L12.0753 18.2633C11.9795 18.3594 11.8657 18.4356 11.7404 18.4876C11.6151 18.5396 11.4808 18.5663 11.3451 18.5663C11.2095 18.5663 11.0752 18.5396 10.9499 18.4876C10.8246 18.4356 10.7108 18.3594 10.615 18.2633L7.52118 15.1695C7.4253 15.0737 7.34924 14.9598 7.29735 14.8346C7.24546 14.7093 7.21875 14.575 7.21875 14.4394C7.21875 14.3038 7.24546 14.1695 7.29735 14.0443C7.34924 13.919 7.4253 13.8052 7.52118 13.7093C7.61707 13.6134 7.7309 13.5373 7.85617 13.4854C7.98145 13.4335 8.11572 13.4068 8.25132 13.4068C8.38692 13.4068 8.52119 13.4335 8.64647 13.4854C8.77174 13.5373 8.88557 13.6134 8.98146 13.7093L11.3451 16.075L16.8026 10.6155C16.8984 10.5194 17.0122 10.4432 17.1375 10.3912C17.2628 10.3393 17.3971 10.3125 17.5327 10.3125C17.6684 10.3125 17.8027 10.3393 17.928 10.3912C18.0533 10.4432 18.1671 10.5194 18.2629 10.6155Z" fill="#00FF57"/>
    <path d="M0 4.12507C0 3.03103 0.434604 1.9818 1.2082 1.2082C1.9818 0.434604 3.03103 0 4.12507 0L20.6253 0C21.7194 0 22.7686 0.434604 23.5422 1.2082C24.3158 1.9818 24.7504 3.03103 24.7504 4.12507V31.9693C24.7503 32.1558 24.6996 32.3388 24.6037 32.4988C24.5078 32.6588 24.3703 32.7898 24.2059 32.8779C24.0414 32.9659 23.8562 33.0077 23.6699 32.9988C23.4835 32.9899 23.3031 32.9306 23.1478 32.8273L12.3752 27.0212L1.60259 32.8273C1.44729 32.9306 1.26687 32.9899 1.08054 32.9988C0.894217 33.0077 0.708961 32.9659 0.544508 32.8779C0.380054 32.7898 0.242562 32.6588 0.146675 32.4988C0.0507879 32.3388 9.63624e-05 32.1558 0 31.9693V4.12507ZM4.12507 2.06253C3.57805 2.06253 3.05344 2.27984 2.66664 2.66664C2.27983 3.05344 2.06253 3.57805 2.06253 4.12507V30.0429L11.8039 24.9237C11.9731 24.811 12.1719 24.7509 12.3752 24.7509C12.5785 24.7509 12.7773 24.811 12.9465 24.9237L22.6879 30.0429V4.12507C22.6879 3.57805 22.4706 3.05344 22.0838 2.66664C21.697 2.27984 21.1723 2.06253 20.6253 2.06253H4.12507Z" fill="#00FF57"/>
</svg>
